<?xml version="1.0" encoding="UTF-8"?>
<svg version="1.1" xmlns="http://www.w3.org/2000/svg" width="675" height="369">
<path d="M0 0 C0.66257813 0.28230469 1.32515625 0.56460938 2.0078125 0.85546875 C6.87827189 3.02577806 11.15388356 6.06905214 15.5 9.125 C16.13663574 9.56932373 16.77327148 10.01364746 17.42919922 10.47143555 C18.99209296 11.59488536 20.50152747 12.79196175 22 14 C22 14.66 22 15.32 22 16 C22.56332031 16.06832031 23.12664062 16.13664062 23.70703125 16.20703125 C33.08862492 19.45143247 40.15669226 33.90608765 45 42 C45.5671875 42.90363281 46.134375 43.80726563 46.71875 44.73828125 C54.9906932 58.64443066 58.40262955 76.04150645 58.375 92.0625 C58.37338867 93.05548096 58.37177734 94.04846191 58.37011719 95.0715332 C58.21691719 104.44001351 56.57063151 113.02477083 54 122 C53.72285156 123.06089844 53.44570312 124.12179688 53.16015625 125.21484375 C49.39010354 138.15811227 41.82724251 149.93902872 33 160 C32.28328125 160.85980469 31.5665625 161.71960938 30.828125 162.60546875 C26.79586731 167.35146549 26.79586731 167.35146549 25 169 C24.01 169 23.02 169 22 169 C21.814375 169.556875 21.62875 170.11375 21.4375 170.6875 C19.33806829 174.06484666 16.27403867 175.87835257 13 178 C12.32227539 178.44424316 11.64455078 178.88848633 10.94628906 179.34619141 C5.82543314 182.62913443 0.77082962 185.06367205 -5 187 C-5.81082031 187.33386719 -6.62164062 187.66773438 -7.45703125 188.01171875 C-30.82953726 197.43781188 -59.85751895 196.79449689 -83.10888672 187.36376953 C-92.31824264 183.34546621 -101.12074641 178.25226907 -109 172 C-109 171.34 -109 170.68 -109 170 C-109.72703125 169.77054688 -110.4540625 169.54109375 -111.203125 169.3046875 C-114.55195985 167.74252152 -116.30897662 165.88548618 -118.75 163.125 C-119.91789062 161.82949219 -119.91789062 161.82949219 -121.109375 160.5078125 C-122.85553945 158.19161916 -123.60562048 156.82638654 -124 154 C-124.66 154 -125.32 154 -126 154 C-141.72258874 134.12758301 -148.19988554 106.82056201 -145.79345703 81.85742188 C-143.52029204 63.17363858 -136.39166398 46.58749598 -126 31 C-125.34 31 -124.68 31 -124 31 C-123.62294922 29.90751953 -123.62294922 29.90751953 -123.23828125 28.79296875 C-121.90309989 25.78143982 -120.36974993 23.77013902 -118.1875 21.3125 C-117.52105469 20.54550781 -116.85460937 19.77851562 -116.16796875 18.98828125 C-113.86077171 16.87231135 -111.87092775 16.14544656 -109 15 C-108.505 13.515 -108.505 13.515 -108 12 C-77.22253342 -10.65728556 -35.00114697 -17.16509923 0 0 Z " fill="#D3F58D" transform="translate(167,92)"/>
<path d="M0 0 C0.6819191 -0.00095673 1.3638382 -0.00191345 2.06642151 -0.00289917 C3.51148572 -0.00358089 4.95655297 -0.00172719 6.40161133 0.00244141 C8.61611818 0.00778166 10.83042144 0.00250045 13.04492188 -0.00390625 C14.44661503 -0.00324531 15.84830806 -0.00196381 17.25 0 C18.53189209 0.00112793 19.81378418 0.00225586 21.13452148 0.00341797 C24.19140625 0.1328125 24.19140625 0.1328125 26.19140625 1.1328125 C26.44140625 3.3203125 26.44140625 3.3203125 26.19140625 6.1328125 C25.51078125 6.9371875 24.83015625 7.7415625 24.12890625 8.5703125 C21.9402161 10.94661834 21.9402161 10.94661834 22.12890625 13.7578125 C23.33332142 17.58360186 24.90582718 21.0811446 26.61328125 24.70703125 C28.50415216 28.81171884 30.25928461 32.96432987 32.00390625 37.1328125 C32.34204346 37.93847656 32.68018066 38.74414062 33.02856445 39.57421875 C34.80634461 43.8138932 36.57629238 48.0567951 38.34375 52.30078125 C38.69526123 53.14189453 39.04677246 53.98300781 39.40893555 54.84960938 C40.07560304 56.44494516 40.73999393 58.0412351 41.40161133 59.63867188 C43.22048371 63.98754754 45.17962563 68.21768932 47.34448242 72.40576172 C48.19140625 74.1328125 48.19140625 74.1328125 49.25390625 77.0703125 C49.71796875 78.09125 49.71796875 78.09125 50.19140625 79.1328125 C51.67640625 79.6278125 51.67640625 79.6278125 53.19140625 80.1328125 C53.37890625 82.5078125 53.37890625 82.5078125 53.19140625 85.1328125 C49.49454413 87.59738725 47.63041287 87.37761039 43.22265625 87.36328125 C42.54593872 87.36282303 41.86922119 87.36236481 41.17199707 87.3618927 C39.74306482 87.35887542 38.3141357 87.35100476 36.88525391 87.33862305 C34.69942556 87.32037943 32.51402151 87.31811338 30.328125 87.31835938 C19.63452953 87.28052026 19.63452953 87.28052026 16.19140625 86.1328125 C15.37890625 84.0078125 15.37890625 84.0078125 15.19140625 81.1328125 C16.03703125 80.2046875 16.88265625 79.2765625 17.75390625 78.3203125 C18.55828125 77.2684375 19.36265625 76.2165625 20.19140625 75.1328125 C19.53140625 72.4928125 18.87140625 69.8528125 18.19140625 67.1328125 C8.95140625 67.1328125 -0.28859375 67.1328125 -9.80859375 67.1328125 C-12.00195013 72.2717207 -12.00195013 72.2717207 -10.80859375 77.1328125 C-10.29296875 77.6278125 -9.77734375 78.1228125 -9.24609375 78.6328125 C-7.80859375 80.1328125 -7.80859375 80.1328125 -7.43359375 82.6953125 C-7.55734375 83.4996875 -7.68109375 84.3040625 -7.80859375 85.1328125 C-10.93342618 87.21603412 -11.63741266 87.3822856 -15.1875 87.36328125 C-16.02603516 87.36134766 -16.86457031 87.35941406 -17.72851562 87.35742188 C-18.60056641 87.34517578 -19.47261719 87.33292969 -20.37109375 87.3203125 C-21.24701172 87.31966797 -22.12292969 87.31902344 -23.02539062 87.31835938 C-29.5275999 87.27330943 -29.5275999 87.27330943 -31.80859375 86.1328125 C-31.80859375 83.8228125 -31.80859375 81.5128125 -31.80859375 79.1328125 C-31.14859375 79.1328125 -30.48859375 79.1328125 -29.80859375 79.1328125 C-29.37401855 78.25931152 -29.37401855 78.25931152 -28.93066406 77.36816406 C-28.24163211 75.99549728 -27.54480623 74.62666855 -26.83496094 73.26464844 C-24.49682723 68.73524286 -22.66586088 64.21396185 -21.05859375 59.3828125 C-18.81235335 52.82009447 -16.35280123 46.3730284 -13.74609375 39.9453125 C-10.18639985 31.12498071 -10.18639985 31.12498071 -6.74609375 22.2578125 C-6.34261719 21.20851562 -5.93914063 20.15921875 -5.5234375 19.078125 C-4.70267575 15.69640717 -4.92755032 13.48077754 -5.80859375 10.1328125 C-6.34484375 9.4521875 -6.88109375 8.7715625 -7.43359375 8.0703125 C-8.80859375 6.1328125 -8.80859375 6.1328125 -8.55859375 3.4453125 C-7.07190897 -1.13863225 -4.49249593 0.0039564 0 0 Z M3.19140625 27.1328125 C0.74085145 32.9793138 -1.40538566 38.79416681 -3.09765625 44.90625 C-3.80859375 47.1328125 -3.80859375 47.1328125 -4.89453125 49.109375 C-6.15166125 51.52219961 -6.15166125 51.52219961 -5.80859375 56.1328125 C0.79140625 56.1328125 7.39140625 56.1328125 14.19140625 56.1328125 C12.46837071 48.29059998 12.46837071 48.29059998 9.75390625 41.0703125 C7.7602204 36.46360052 5.91392402 31.84707167 4.19140625 27.1328125 C3.86140625 27.1328125 3.53140625 27.1328125 3.19140625 27.1328125 Z " fill="#DAF995" transform="translate(559.80859375,108.8671875)"/>
<path d="M0 0 C1.78722977 -0.01925285 1.78722977 -0.01925285 3.61056519 -0.03889465 C5.55734665 -0.04997505 5.55734665 -0.04997505 7.54345703 -0.0612793 C8.20074924 -0.06535482 8.85804146 -0.06943035 9.53525162 -0.07362938 C13.0140578 -0.09450523 16.49282436 -0.10880038 19.97167969 -0.11816406 C23.56893257 -0.12923285 27.16556756 -0.16363251 30.76260185 -0.20333576 C33.52496507 -0.22945612 36.28718006 -0.23785172 39.04965591 -0.24144554 C41.0212203 -0.2486975 42.99268358 -0.27515669 44.96408081 -0.30183411 C46.76076706 -0.29744576 46.76076706 -0.29744576 48.59375 -0.29296875 C50.17807327 -0.30176811 50.17807327 -0.30176811 51.79440308 -0.31074524 C54.42626953 0.17700195 54.42626953 0.17700195 56.22927856 1.98786926 C57.9063166 5.05494235 58.54468659 8.21392643 59.17626953 11.61450195 C59.31419922 12.26999023 59.45212891 12.92547852 59.59423828 13.60083008 C60.33700035 17.41801453 60.49567921 20.42684232 59.42626953 24.17700195 C57.30126953 24.92700195 57.30126953 24.92700195 54.42626953 25.17700195 C49.86893074 22.84985023 46.94466237 19.70434058 43.82080078 15.76293945 C42.32231806 13.92096566 42.32231806 13.92096566 39.42626953 12.17700195 C36.67774525 12.00843342 34.04525095 11.94368856 31.30126953 11.98950195 C30.56005859 11.99014648 29.81884766 11.99079102 29.05517578 11.99145508 C25.44296911 11.69345833 25.44296911 11.69345833 22.42626953 13.17700195 C22.26784303 15.24784915 22.17502531 17.32378225 22.10986328 19.3996582 C22.06796875 20.6597168 22.02607422 21.91977539 21.98291016 23.21801758 C21.94309357 24.55850931 21.90338139 25.89900415 21.86376953 27.23950195 C21.82058911 28.58391718 21.77697498 29.92831855 21.73291016 31.27270508 C21.62641595 34.57402536 21.52440493 37.87542431 21.42626953 41.17700195 C23.5103986 41.11676701 25.59371388 41.02791875 27.67626953 40.92700195 C28.83642578 40.8805957 29.99658203 40.83418945 31.19189453 40.78637695 C34.95907352 40.07661859 36.05455042 39.10930921 38.42626953 36.17700195 C39.16876953 35.26950195 39.91126953 34.36200195 40.67626953 33.42700195 C41.54251953 32.31325195 41.54251953 32.31325195 42.42626953 31.17700195 C44.86376953 31.55200195 44.86376953 31.55200195 47.42626953 32.17700195 C49.48558099 36.29562486 48.61116215 41.65059241 48.61376953 46.17700195 C48.62601562 47.2959082 48.63826172 48.41481445 48.65087891 49.56762695 C48.6528125 50.6349707 48.65474609 51.70231445 48.65673828 52.80200195 C48.66084717 53.78426758 48.66495605 54.7665332 48.66918945 55.77856445 C48.42626953 58.17700195 48.42626953 58.17700195 46.42626953 60.17700195 C43.95361328 60.5480957 43.95361328 60.5480957 41.42626953 60.17700195 C40.11767578 58.4621582 40.11767578 58.4621582 38.98876953 56.23950195 C36.80738201 52.95874142 35.86316859 52.27121594 31.93017578 51.4230957 C28.41244747 51.19991657 24.94957038 51.09977892 21.42626953 51.17700195 C21.4784586 55.03224412 21.57360983 58.88529954 21.67626953 62.73950195 C21.69044922 63.82553711 21.70462891 64.91157227 21.71923828 66.03051758 C21.92111092 72.67212734 22.69906171 76.67600245 26.42626953 82.17700195 C26.30126953 84.55200195 26.30126953 84.55200195 25.42626953 86.17700195 C22.6893267 87.54547337 20.49027706 87.30668117 17.43017578 87.30981445 C16.23199219 87.31110352 15.03380859 87.31239258 13.79931641 87.3137207 C12.54183594 87.30985352 11.28435547 87.30598633 9.98876953 87.30200195 C8.73515625 87.30586914 7.48154297 87.30973633 6.18994141 87.3137207 C4.99046875 87.31243164 3.79099609 87.31114258 2.55517578 87.30981445 C1.45246338 87.30868652 0.34975098 87.30755859 -0.78637695 87.30639648 C-3.57373047 87.17700195 -3.57373047 87.17700195 -6.57373047 86.17700195 C-6.95133302 80.76469875 -6.95133302 80.76469875 -5.08627319 77.86193848 C-3.26606406 74.63085885 -3.19360687 72.59651841 -3.18554688 68.90551758 C-3.17609039 67.66072632 -3.16663391 66.41593506 -3.15689087 65.13342285 C-3.16226092 63.78336263 -3.16841396 62.43330533 -3.17529297 61.08325195 C-3.17327035 59.68989917 -3.17035735 58.29654742 -3.16659546 56.90319824 C-3.16218087 53.98801561 -3.16857489 51.0731094 -3.18261719 48.15795898 C-3.19970898 44.42879481 -3.18986309 40.70027843 -3.1718998 36.971138 C-3.16103829 34.09543004 -3.16451905 31.21987464 -3.17228317 28.34416199 C-3.17427866 26.96949689 -3.17184884 25.59481777 -3.16484451 24.22016907 C-3.15719196 22.29627766 -3.17093168 20.37233744 -3.18554688 18.44848633 C-3.18793365 17.35548218 -3.19032043 16.26247803 -3.19277954 15.13635254 C-3.62306743 11.79373639 -4.76574876 9.9788205 -6.57373047 7.17700195 C-6.82373047 3.92700195 -6.82373047 3.92700195 -6.57373047 1.17700195 C-4.82366776 -0.57306076 -2.37879256 0.02220443 0 0 Z " fill="#D9F993" transform="translate(244.57373046875,108.822998046875)"/>
<path d="M0 0 C0.66 1.32 1.32 2.64 2 4 C2.5775 3.525625 3.155 3.05125 3.75 2.5625 C9.30326329 -1.29393284 16.52305273 -0.42016916 23 0 C28.92331937 1.16752588 33.61870789 5.13445239 37 10 C40.54168996 18.0456504 40.63149598 27.41778296 41.17895508 36.08227539 C41.59976642 41.97625447 42.78512184 46.53145984 45 52 C45.23126183 54.40189749 45.15115558 56.58151072 45 59 C42.30734639 60.3463268 40.19885751 60.12962636 37.1875 60.1328125 C36.02992188 60.13410156 34.87234375 60.13539063 33.6796875 60.13671875 C32.46539062 60.13285156 31.25109375 60.12898438 30 60.125 C28.17855469 60.13080078 28.17855469 60.13080078 26.3203125 60.13671875 C24.58394531 60.13478516 24.58394531 60.13478516 22.8125 60.1328125 C21.74644531 60.13168457 20.68039062 60.13055664 19.58203125 60.12939453 C17 60 17 60 15 59 C14.7603175 55.56455086 14.64116172 53.57583211 16.4921875 50.60546875 C20.54061836 43.60986413 17.83993198 32.87287009 17.1875 25.0625 C17.11764893 24.15048828 17.04779785 23.23847656 16.97583008 22.29882812 C16.53489386 17.55689909 16.15188567 13.79782768 13 10 C10.5 9.25 10.5 9.25 8 10 C5.42788181 12.45802453 5.00894153 13.92263819 4.59594727 17.49584961 C4.56949526 18.88113012 4.5606563 20.26682264 4.56640625 21.65234375 C4.55854347 22.7580648 4.55854347 22.7580648 4.55052185 23.88612366 C4.54411181 25.44189192 4.54542553 26.99770871 4.55395508 28.5534668 C4.56246058 30.926502 4.53370199 33.29712464 4.50195312 35.66992188 C4.50034074 37.18489512 4.50091936 38.6998726 4.50390625 40.21484375 C4.49267227 40.9201976 4.48143829 41.62555145 4.46986389 42.35227966 C4.53848168 47.2341607 5.75050839 49.44928366 9 53 C9.4375 55.6875 9.4375 55.6875 9 58 C5.49870264 60.33419824 4.04538161 60.25710827 -0.09375 60.265625 C-1.28871094 60.26820313 -2.48367188 60.27078125 -3.71484375 60.2734375 C-4.96394531 60.26570313 -6.21304687 60.25796875 -7.5 60.25 C-9.37365234 60.26160156 -9.37365234 60.26160156 -11.28515625 60.2734375 C-13.07759766 60.26957031 -13.07759766 60.26957031 -14.90625 60.265625 C-16.55077148 60.26224121 -16.55077148 60.26224121 -18.22851562 60.25878906 C-21 60 -21 60 -24 58 C-23.505 55.03 -23.505 55.03 -23 52 C-22.34 52 -21.68 52 -21 52 C-19.25644737 46.20960705 -19.69138991 40.05268009 -19.625 34.0625 C-19.58761719 32.78697266 -19.55023438 31.51144531 -19.51171875 30.19726562 C-19.21026578 23.90872266 -19.21026578 23.90872266 -21.11767578 18.09960938 C-22.59718334 16.61167347 -22.59718334 16.61167347 -25 15 C-25.625 12.375 -25.625 12.375 -25 10 C-21.21541886 7.45120046 -17.11563953 5.4023319 -13.0625 3.3125 C-12.46759766 2.99216797 -11.87269531 2.67183594 -11.25976562 2.34179688 C-7.3335142 0.32932483 -4.39538019 -0.35565672 0 0 Z " fill="#D9F992" transform="translate(427,136)"/>
<path d="M0 0 C2.87348763 0.15060208 3.94583192 0.94873193 6.04296875 2.93359375 C6.75066406 3.75988281 7.45835938 4.58617187 8.1875 5.4375 C12.12786917 9.99968823 16.1894307 14.40907769 20.34765625 18.7734375 C22 21 22 21 22 25 C18.7 25.66 15.4 26.32 12 27 C19.35830794 47.60326224 34.47584025 61.69468704 53.875 70.9375 C67.33062346 76.97306101 86.99002835 77.54140508 101 73 C121.45271446 65.01632538 136.77317066 52.80286044 147 33 C148.19304717 29.84278981 149.219238 26.71438268 150.11328125 23.4609375 C151.04534495 20.87415279 151.82639478 19.65477985 154 18 C156.5625 17.6875 156.5625 17.6875 159 18 C159.99 18.99 159.99 18.99 161 20 C160.70530456 37.97642206 149.19644505 51.95621137 137 64 C119.98236837 80.26254467 98.34321038 86.6334463 75.16796875 86.27734375 C62.56428179 85.80159895 50.83295093 82.48669912 40 76 C39.23816406 75.56042969 38.47632813 75.12085938 37.69140625 74.66796875 C23.42614678 65.84435906 6.69530422 49.93896295 2.5 33.1875 C2.335 32.135625 2.17 31.08375 2 30 C1.14148438 30.24556641 1.14148438 30.24556641 0.265625 30.49609375 C-1.99563646 30.99902949 -3.94006946 31.10099884 -6.25 31.0625 C-8.10625 31.0315625 -8.10625 31.0315625 -10 31 C-9.42733757 24.33201282 -7.72295433 18.4435589 -5.5625 12.125 C-5.09360352 10.701875 -5.09360352 10.701875 -4.61523438 9.25 C-2.26051457 2.26051457 -2.26051457 2.26051457 0 0 Z " fill="#1D1E0D" transform="translate(43,182)"/>
<path d="M0 0 C8.39367434 7.67473007 17.35291426 18.12833577 19.6875 29.5625 C20.574375 29.211875 21.46125 28.86125 22.375 28.5 C25.74953126 27.54494398 27.38436152 27.59098868 30.6875 28.5625 C30.16839929 35.81020968 28.89021888 42.64640284 27.125 49.6875 C26.89103516 50.64398438 26.65707031 51.60046875 26.41601562 52.5859375 C25.84588044 54.91301988 25.26964777 57.23839932 24.6875 59.5625 C19.79778617 59.1512992 17.23732344 56.73081648 13.875 53.4375 C12.82229641 52.43808342 11.76890886 51.43938677 10.71484375 50.44140625 C10.2029248 49.95172363 9.69100586 49.46204102 9.16357422 48.95751953 C6.09562131 46.05803509 2.88462591 43.31767027 -0.3125 40.5625 C0.0175 38.9125 0.3475 37.2625 0.6875 35.5625 C3.6575 34.9025 6.6275 34.2425 9.6875 33.5625 C1.60881488 14.92362238 -11.54035133 1.76953544 -30.3125 -6.4375 C-31.35921875 -6.92605469 -32.4059375 -7.41460937 -33.484375 -7.91796875 C-43.75904147 -12.22319871 -53.34706161 -12.08385055 -64.3125 -11.4375 C-65.35204834 -11.39326904 -65.35204834 -11.39326904 -66.41259766 -11.34814453 C-85.13288378 -10.44376025 -101.29126816 0.81742317 -113.74609375 14.171875 C-120.12533361 21.61611443 -124.48024275 29.57852875 -127.875 38.75 C-129.3125 41.5625 -129.3125 41.5625 -131.8125 42.6875 C-134.3125 42.5625 -134.3125 42.5625 -136.125 41.5 C-137.91617445 38.57755748 -137.74832251 36.98681975 -137.3125 33.5625 C-132.71815251 16.93096209 -120.47943652 3.9025294 -107.3125 -6.4375 C-106.66539063 -6.98535156 -106.01828125 -7.53320312 -105.3515625 -8.09765625 C-73.67883296 -34.03056799 -28.87986584 -23.87478949 0 0 Z " fill="#1D1E0D" transform="translate(181.3125,124.4375)"/>
<path d="M0 0 C4.22299204 3.40718676 7.22529815 7.01986339 8.25 12.4375 C8.42664959 17.82066387 6.3750721 21.90056101 3 26 C-3.95211949 31.85516621 -12.29573957 33.383003 -21 35 C-15.37009593 39.59281648 -12.22288728 40.70289843 -5 40 C-0.66303391 38.44927204 -0.66303391 38.44927204 2 35 C3.99954746 34.95745644 6.00041636 34.95919217 8 35 C9 36 9 36 9 39.5625 C8.15435221 45.67971843 3.97058767 49.61941358 -0.69140625 53.35546875 C-7.99535125 58.42612731 -17.42628553 57.82184285 -26 57 C-29.48396703 56.02226906 -31.86989824 54.85487512 -35 53 C-35 52.34 -35 51.68 -35 51 C-35.721875 50.835 -36.44375 50.67 -37.1875 50.5 C-42.46751638 47.68399126 -44.73257796 42.11678006 -46.8125 36.6875 C-49.26576274 28.55668633 -48.83754371 20.56633112 -45 13 C-44.50693359 11.98099609 -44.50693359 11.98099609 -44.00390625 10.94140625 C-40.32526947 4.20784619 -34.8720144 0.33157303 -27.671875 -2.14453125 C-19.07048835 -4.14847133 -7.8483448 -4.71533619 0 0 Z M-24.1875 6.8125 C-27.07887256 10.30208758 -27.13665993 13.18419495 -27.125 17.5625 C-27.12757813 18.53316406 -27.13015625 19.50382812 -27.1328125 20.50390625 C-27.16650953 22.99952953 -27.16650953 22.99952953 -26 25 C-22.71073505 25.50196294 -22.71073505 25.50196294 -19 25 C-15.6493515 22.29096504 -14.31199748 20.74061752 -13.5546875 16.515625 C-13.37232339 12.40635381 -13.43704713 9.8444293 -15.75 6.375 C-19.1032139 4.32581373 -21.14689689 4.29314314 -24.1875 6.8125 Z " fill="#DAF995" transform="translate(354,139)"/>
<path d="M0 0 C9.9 0 19.8 0 30 0 C30.66 1.65 31.32 3.3 32 5 C30.99915882 6.57958675 29.99727299 8.15852299 28.98965454 9.73379517 C26.75075774 14.86063341 27.49946127 20.82208335 27.57421875 26.32421875 C27.57914967 27.71710237 27.58244398 29.10999265 27.58418274 30.50288391 C27.59179308 33.41042529 27.61226509 36.31746915 27.64331055 39.22485352 C27.68299413 42.94715366 27.70094145 46.66913201 27.71061993 50.39161968 C27.72059938 53.95252928 27.74045975 57.51336122 27.76171875 61.07421875 C27.76681237 62.08870873 27.76681237 62.08870873 27.7720089 63.12369347 C27.7836154 65.04042896 27.80313318 66.9571116 27.82299805 68.8737793 C27.83284225 69.96297165 27.84268646 71.052164 27.85282898 72.17436218 C27.98004476 74.61686562 28.29525939 76.66914129 29 79 C29.66 79 30.32 79 31 79 C31.6875 81.3125 31.6875 81.3125 32 84 C30.90039062 85.64526367 30.90039062 85.64526367 29 87 C26.22851562 87.37231445 26.22851562 87.37231445 22.90625 87.36328125 C21.71128906 87.36263672 20.51632812 87.36199219 19.28515625 87.36132812 C18.03605469 87.34521484 16.78695312 87.32910156 15.5 87.3125 C14.25089844 87.31572266 13.00179687 87.31894531 11.71484375 87.32226562 C2.40050383 87.26700255 2.40050383 87.26700255 -1 85 C-1.4375 82.8125 -1.4375 82.8125 -1 80 C-0.34193359 79.06148193 0.31613281 78.12296387 0.99414062 77.15600586 C4.1560107 71.74140908 3.57140324 65.78773248 3.53125 59.69140625 C3.5350769 58.41071762 3.53890381 57.13002899 3.54284668 55.81053162 C3.54872041 53.10810904 3.54025034 50.40621785 3.52148438 47.70385742 C3.49871763 44.25957348 3.51181486 40.81653817 3.53577423 37.37230015 C3.55380281 34.06190533 3.54113472 30.75183641 3.53125 27.44140625 C3.53934692 26.21410294 3.54744385 24.98679962 3.55578613 23.7223053 C3.489172 17.60420661 3.28008931 13.00129706 -0.24133301 7.86338806 C-1 6 -1 6 0 0 Z " fill="#DAF994" transform="translate(617,109)"/>
<path d="M0 0 C16.5 0 33 0 50 0 C50 2.97 50 5.94 50 9 C45.71 9 41.42 9 37 9 C38.57372693 12.80530676 38.57372693 12.80530676 41 16 C44.12618239 16.94700189 46.68645997 16.95127147 50 17 C50 19.97 50 22.94 50 26 C47.36 26 44.72 26 42 26 C41.85304687 26.56847656 41.70609375 27.13695312 41.5546875 27.72265625 C39.53527 34.67455903 36.83088036 39.6302567 30.5625 43.5078125 C26.37550563 45.68853874 22.63997949 47.12792143 18 48 C18.43755615 48.4626123 18.8751123 48.92522461 19.32592773 49.40185547 C43 74.44802208 43 74.44802208 43 76 C32.70585383 77.21704191 32.70585383 77.21704191 28.99609375 74.5703125 C27.87379275 73.2235513 26.80186906 71.83379973 25.7734375 70.4140625 C23.74228591 67.64919095 21.46160628 65.38768417 19 63 C15.3161779 59.36103418 11.82497849 55.6367683 8.47265625 51.69140625 C7.06267708 49.9805964 7.06267708 49.9805964 5.41967773 48.68725586 C3.54630367 46.46079186 3.68791012 45.17806732 3.8125 42.3125 C3.83957031 41.50425781 3.86664063 40.69601563 3.89453125 39.86328125 C3.92933594 39.24839844 3.96414062 38.63351563 4 38 C5.30195312 37.97421875 6.60390625 37.9484375 7.9453125 37.921875 C9.67190756 37.86557299 11.39846876 37.80822613 13.125 37.75 C14.40890625 37.72873047 14.40890625 37.72873047 15.71875 37.70703125 C21.23702735 37.49478981 24.756559 36.85309479 29 33 C30.32 30.69 31.64 28.38 33 26 C22.11 26 11.22 26 0 26 C0 23.03 0 20.06 0 17 C10.23 17 20.46 17 31 17 C26.38704493 10.90408103 26.38704493 10.90408103 19.54052734 8.67822266 C16.5874668 8.48081063 13.64634311 8.37875688 10.6875 8.3125 C9.66076172 8.27833984 8.63402344 8.24417969 7.57617188 8.20898438 C5.05089037 8.12676591 2.5259446 8.05753064 0 8 C0 5.36 0 2.72 0 0 Z " fill="#0B0F07" transform="translate(98,152)"/>
<path d="M0 0 C2.43308911 2.43308911 2.25011308 3.0386533 2.25537109 6.37036133 C2.26233002 7.2750264 2.26928894 8.17969147 2.27645874 9.11177063 C2.27546173 10.09195663 2.27446472 11.07214264 2.2734375 12.08203125 C2.2937305 14.14909392 2.31458136 16.21615117 2.3359375 18.28320312 C2.35853051 21.54863034 2.37500241 24.81384395 2.38085938 28.0793457 C2.39038241 31.22646937 2.42416463 34.37262449 2.4609375 37.51953125 C2.45589203 38.49364456 2.45084656 39.46775787 2.44564819 40.47138977 C2.52669108 46.05698016 2.97091622 48.82847387 7 53 C7.25 56.3125 7.25 56.3125 7 59 C1.70089841 60.7663672 -3.95404239 60.22710647 -9.5 60.25 C-11.37365234 60.2809375 -11.37365234 60.2809375 -13.28515625 60.3125 C-15.07759766 60.32023437 -15.07759766 60.32023437 -16.90625 60.328125 C-18.00259766 60.3374707 -19.09894531 60.34681641 -20.22851562 60.35644531 C-23 60 -23 60 -24.88867188 58.62792969 C-26 57 -26 57 -25.875 54.625 C-25 52 -25 52 -23.47241211 49.70654297 C-20.83020398 44.84971668 -21.52959376 39.53957178 -21.5625 34.125 C-21.54251953 32.96613281 -21.52253906 31.80726563 -21.50195312 30.61328125 C-21.50591687 23.67671966 -22.23657568 19.77212318 -26 14 C-25.85131836 11.9621582 -25.85131836 11.9621582 -25 10 C-23.37353516 8.7355957 -23.37353516 8.7355957 -21.2890625 7.67578125 C-20.53882813 7.28712891 -19.78859375 6.89847656 -19.015625 6.49804688 C-17.83226562 5.91120117 -17.83226562 5.91120117 -16.625 5.3125 C-15.84382813 4.90966797 -15.06265625 4.50683594 -14.2578125 4.09179688 C-5.43454352 -0.41804181 -5.43454352 -0.41804181 0 0 Z " fill="#D9F993" transform="translate(392,136)"/>
<path d="M0 0 C3.78497178 2.58066258 6.22883058 5.21065428 7.1328125 9.83203125 C7.42488842 14.92388805 6.06377724 17.89846731 2.75 21.875 C-1.88371496 24.9641433 -7.10233858 25.46122553 -12.578125 24.44140625 C-15.94589268 23.33752684 -17.85292533 22.33611897 -20.1875 19.625 C-22.10018181 14.67452944 -22.66923367 11.27244558 -21.125 6.125 C-16.69009937 -1.56216109 -7.93646528 -2.74723798 0 0 Z " fill="#DBF998" transform="translate(390.25,107.125)"/>
<path d="M0 0 C0.85428589 -0.0004985 1.70857178 -0.00099701 2.58874512 -0.00151062 C4.39431078 0.0008291 6.19987975 0.01055168 8.00537109 0.02709961 C10.77080415 0.05069213 13.53527313 0.04765993 16.30078125 0.04101562 C18.05469325 0.04659247 19.80860119 0.05370239 21.5625 0.0625 C22.80477356 0.06113289 22.80477356 0.06113289 24.07214355 0.05973816 C27.97916331 0.10804764 29.95841382 0.14805713 33.28125 2.36328125 C33.57421875 4.74609375 33.57421875 4.74609375 33.46875 7.48828125 C33.42814453 8.85339844 33.42814453 8.85339844 33.38671875 10.24609375 C33.35191406 10.94476563 33.31710937 11.6434375 33.28125 12.36328125 C29.3705598 13.66684465 25.63924643 13.5257721 21.5625 13.53125 C20.28107117 13.5362426 20.28107117 13.5362426 18.97375488 13.54133606 C17.16821837 13.54639679 15.36267251 13.54874465 13.55712891 13.54858398 C10.79183623 13.55077287 8.02694097 13.56894401 5.26171875 13.58789062 C3.50781387 13.59082421 1.75390709 13.59280924 0 13.59375 C-1.24227356 13.60452827 -1.24227356 13.60452827 -2.50964355 13.61552429 C-6.42901182 13.59988225 -8.38357103 13.5867339 -11.71875 11.36328125 C-12.39976031 4.21267297 -12.39976031 4.21267297 -10.43591309 1.76325989 C-7.4573104 -0.66515251 -3.67912876 -0.04091351 0 0 Z " fill="#DCF99B" transform="translate(489.71875,147.63671875)"/>
<path d="M0 0 C1.65 0 3.3 0 5 0 C5.67220351 1.93558599 6.33758077 3.87354372 7 5.8125 C7.556875 7.43091797 7.556875 7.43091797 8.125 9.08203125 C9 12 9 12 9 15 C9.66 15 10.32 15 11 15 C10.67 10.38 10.34 5.76 10 1 C11.65 0.67 13.3 0.34 15 0 C15.96070434 2.88211302 16.10581883 4.69850044 16.0625 7.6875 C16.05347656 8.49574219 16.04445313 9.30398437 16.03515625 10.13671875 C16.02355469 10.75160156 16.01195312 11.36648437 16 12 C18.31 12.33 20.62 12.66 23 13 C23 14.32 23 15.64 23 17 C20.20775927 17.08071788 17.41783434 17.14035408 14.625 17.1875 C13.8309375 17.21263672 13.036875 17.23777344 12.21875 17.26367188 C10.14413852 17.29004405 8.06899135 17.15486462 6 17 C5.34 16.01 4.68 15.02 4 14 C1.94074861 13.27617533 1.94074861 13.27617533 0 13 C-0.33 14.32 -0.66 15.64 -1 17 C-2.32 16.67 -3.64 16.34 -5 16 C-3.41078475 10.63904723 -1.81027062 5.29156027 0 0 Z " fill="#EAF6B9" transform="translate(448,238)"/>
<path d="M0 0 C0.66 0.33 1.32 0.66 2 1 C2.4233139 9.04296401 0.76311833 14.08026953 -4.3125 20.3125 C-7.2440524 23.53720764 -9.62247465 25.14584871 -14 26 C-14 26.66 -14 27.32 -14 28 C-14.66 28 -15.32 28 -16 28 C-16.66 27.34 -17.32 26.68 -18 26 C-18.99 26 -19.98 26 -21 26 C-19.8125 23.5625 -19.8125 23.5625 -18 21 C-15.86964089 20.34060313 -14.21685912 20 -12 20 C-11.8453125 18.453125 -11.8453125 18.453125 -11.6875 16.875 C-10.99681944 12.98207322 -10.13290852 10.3178577 -8 7 C-5.8125 6.125 -5.8125 6.125 -4 6 C-3.67 4.35 -3.34 2.7 -3 1 C-2.01 0.67 -1.02 0.34 0 0 Z " fill="#19180D" transform="translate(192,218)"/>
<path d="M0 0 C0.99 0.33 1.98 0.66 3 1 C3.33 1.99 3.66 2.98 4 4 C4.66 3.01 5.32 2.02 6 1 C8.625 0.3125 8.625 0.3125 11 0 C11 4.26826873 10.62386487 4.93882432 8 8 C8.268125 8.515625 8.53625 9.03125 8.8125 9.5625 C10.32349407 12.66401415 11.65572726 15.82262806 13 19 C11.35 19.33 9.7 19.66 8 20 C6.68 17.69 5.36 15.38 4 13 C4 14.98 4 16.96 4 19 C2.34385343 19.38218767 0.67542976 19.71395102 -1 20 C-2 19 -2 19 -2.11352539 17.23413086 C-2.10828857 16.48526611 -2.10305176 15.73640137 -2.09765625 14.96484375 C-2.09443359 14.15595703 -2.09121094 13.34707031 -2.08789062 12.51367188 C-2.07951172 11.66353516 -2.07113281 10.81339844 -2.0625 9.9375 C-2.05798828 9.08349609 -2.05347656 8.22949219 -2.04882812 7.34960938 C-2.03700373 5.23304337 -2.01906769 3.11651315 -2 1 C-1.34 0.67 -0.68 0.34 0 0 Z " fill="#DCF3A3" transform="translate(548,235)"/>
<path d="M0 0 C1.3303125 0.02126953 1.3303125 0.02126953 2.6875 0.04296875 C4.0178125 0.05263672 4.0178125 0.05263672 5.375 0.0625 C7.6875 0.23046875 7.6875 0.23046875 9.6875 1.23046875 C9.3575 2.55046875 9.0275 3.87046875 8.6875 5.23046875 C6.0475 5.23046875 3.4075 5.23046875 0.6875 5.23046875 C1.32558594 5.46121094 1.96367187 5.69195312 2.62109375 5.9296875 C9.31617288 8.57220703 9.31617288 8.57220703 11.0625 11.66796875 C10.6875 14.23046875 10.6875 14.23046875 8.8125 17.10546875 C4.89344818 19.77042399 2.98998603 19.41214249 -1.51953125 18.625 C-2.11121094 18.49480469 -2.70289063 18.36460937 -3.3125 18.23046875 C-4.4375 14.48046875 -4.4375 14.48046875 -3.3125 12.23046875 C-2.714375 12.41609375 -2.11625 12.60171875 -1.5 12.79296875 C0.85158762 13.45140562 0.85158762 13.45140562 3.6875 12.23046875 C3.6875 12.89046875 3.6875 13.55046875 3.6875 14.23046875 C4.3475 14.23046875 5.0075 14.23046875 5.6875 14.23046875 C5.3575 13.57046875 5.0275 12.91046875 4.6875 12.23046875 C2.35739091 11.55261883 0.02390176 10.88630082 -2.3125 10.23046875 C-4.3125 8.23046875 -4.3125 8.23046875 -4.5625 5.23046875 C-4.26078532 1.6098926 -3.73278679 0.3720176 0 0 Z " fill="#E2F5A6" transform="translate(483.3125,235.76953125)"/>
<path d="M0 0 C0.33 0 0.66 0 1 0 C1.14552596 5.89999379 1.28776064 11.80005562 1.42724609 17.70019531 C1.474895 19.69761169 1.52336646 21.69500866 1.57275391 23.69238281 C1.8329164 34.23692812 2.05104284 44.78017694 2.09375 55.328125 C2.1002356 56.17542175 2.10672119 57.02271851 2.11340332 57.89569092 C2.1179731 63.76405379 2.1179731 63.76405379 1 66 C0.34 66 -0.32 66 -1 66 C-1 67.98 -1 69.96 -1 72 C11.87 72.495 11.87 72.495 25 73 C25.33 71.35 25.66 69.7 26 68 C25.34 67.67 24.68 67.34 24 67 C24.33 65.68 24.66 64.36 25 63 C29.03387334 69.35640648 29.03387334 69.35640648 28.875 72.375 C28 74 28 74 26 75 C24.00317661 75.09720918 22.00309335 75.1307655 20.00390625 75.1328125 C18.80572266 75.13410156 17.60753906 75.13539063 16.37304688 75.13671875 C15.11556641 75.13285156 13.85808594 75.12898438 12.5625 75.125 C11.30888672 75.12886719 10.05527344 75.13273437 8.76367188 75.13671875 C7.56419922 75.13542969 6.36472656 75.13414062 5.12890625 75.1328125 C4.02619385 75.13168457 2.92348145 75.13055664 1.78735352 75.12939453 C-1 75 -1 75 -4 74 C-4.37761312 68.58754523 -4.37761312 68.58754523 -2.51530457 65.68989563 C-0.68730565 62.44492007 -0.60478253 60.35729695 -0.56762695 56.64916992 C-0.54783279 55.3882402 -0.52803864 54.12731049 -0.50764465 52.82817078 C-0.50087594 51.46227162 -0.49442895 50.09637084 -0.48828125 48.73046875 C-0.47142575 47.32512347 -0.45327433 45.91979318 -0.43388367 44.51448059 C-0.38647149 40.8271249 -0.35660574 37.13983003 -0.33044434 33.45227051 C-0.30059417 29.68485507 -0.25407925 25.91764898 -0.20898438 22.15039062 C-0.12305138 14.76703116 -0.05566206 7.38365632 0 0 Z " fill="#E9F9C3" transform="translate(242,121)"/>
<path d="M0 0 C3.96 0 7.92 0 12 0 C12 1.65 12 3.3 12 5 C11.01 5.495 11.01 5.495 10 6 C10.2784375 6.9590625 10.2784375 6.9590625 10.5625 7.9375 C10.706875 8.618125 10.85125 9.29875 11 10 C10 11 10 11 7.4375 11.0625 C6.633125 11.041875 5.82875 11.02125 5 11 C5 11.66 5 12.32 5 13 C8.465 12.505 8.465 12.505 12 12 C12 13.65 12 15.3 12 17 C8.37 17 4.74 17 1 17 C0.04108043 13.16432171 -0.10177189 10.17718859 -0.0625 6.25 C-0.05347656 5.07953125 -0.04445313 3.9090625 -0.03515625 2.703125 C-0.02355469 1.81109375 -0.01195312 0.9190625 0 0 Z " fill="#E6F5A2" transform="translate(521,238)"/>
<path d="M0 0 C2.76771273 0.04472067 4.14021868 0.22754137 6.6875 1.4375 C8.1875 3.25 8.1875 3.25 8.5 5.6875 C8.1875 8.25 8.1875 8.25 7.5625 10.3125 C7.06561029 12.8797635 7.86070572 14.06469177 9.1875 16.25 C7.5375 16.58 5.8875 16.91 4.1875 17.25 C2.1875 14.25 2.1875 14.25 2.1875 11.25 C1.1975 11.25 0.2075 11.25 -0.8125 11.25 C-0.4825 12.9 -0.1525 14.55 0.1875 16.25 C-1.75 16.8125 -1.75 16.8125 -3.8125 17.25 C-5.56809942 15.49440058 -4.94471919 13.21417558 -4.94921875 10.87890625 C-4.94535156 10.17636719 -4.94148438 9.47382813 -4.9375 8.75 C-4.94136719 8.04746094 -4.94523437 7.34492188 -4.94921875 6.62109375 C-4.93708513 0.32374329 -4.93708513 0.32374329 0 0 Z M0.1875 4.25 C-0.1425 5.24 -0.4725 6.23 -0.8125 7.25 C0.5075 7.25 1.8275 7.25 3.1875 7.25 C3.1875 6.59 3.1875 5.93 3.1875 5.25 C2.1975 4.92 1.2075 4.59 0.1875 4.25 Z " fill="#DFF59F" transform="translate(331.8125,237.75)"/>
<path d="M0 0 C2.4375 0.1875 2.4375 0.1875 5 1 C6.3125 3.0625 6.3125 3.0625 7 5 C7.33 3.35 7.66 1.7 8 0 C9.65 0.33 11.3 0.66 13 1 C13 5.95 13 10.9 13 16 C11.68 16.33 10.36 16.66 9 17 C7.68 15.02 6.36 13.04 5 11 C4.34 12.98 3.68 14.96 3 17 C1.68 16.67 0.36 16.34 -1 16 C-1.02685095 13.52076199 -1.04676547 11.0418116 -1.0625 8.5625 C-1.07506836 7.50192383 -1.07506836 7.50192383 -1.08789062 6.41992188 C-1.09653588 4.61306441 -1.05220011 2.80612397 -1 1 C-0.67 0.67 -0.34 0.34 0 0 Z " fill="#E3F6A2" transform="translate(375,238)"/>
<path d="M0 0 C2.4375 0.1875 2.4375 0.1875 5 1 C6.3125 3.0625 6.3125 3.0625 7 5 C7.33 3.35 7.66 1.7 8 0 C9.32 0 10.64 0 12 0 C12 5.28 12 10.56 12 16 C11.01 16.33 10.02 16.66 9 17 C5.98672434 15.49336217 5.38943382 12.96833589 4 10 C4 11.98 4 13.96 4 16 C2.68 16.33 1.36 16.66 0 17 C-1.49341703 14.01316593 -1.13175178 11.25600226 -1.125 7.9375 C-1.12757813 6.66777344 -1.13015625 5.39804688 -1.1328125 4.08984375 C-1 1 -1 1 0 0 Z " fill="#E3F4B1" transform="translate(406,238)"/>
<path d="M0 0 C1.32 0 2.64 0 4 0 C4 4.29 4 8.58 4 13 C5.32 13 6.64 13 8 13 C8 9.04 8 5.08 8 1 C9.65 0.67 11.3 0.34 13 0 C13.05423638 1.91635217 13.09289963 3.83314925 13.125 5.75 C13.14820313 6.81734375 13.17140625 7.8846875 13.1953125 8.984375 C13.00322356 11.95022828 12.63578192 13.55204664 11 16 C8.20129973 17.39935013 6.09501208 17.25265405 3 17 C1.1875 15.9375 1.1875 15.9375 0 14 C-0.90141602 9.65681375 -1.21096549 5.43027521 -1 1 C-0.67 0.67 -0.34 0.34 0 0 Z " fill="#EBF7C3" transform="translate(311,238)"/>
<path d="M0 0 C3.11218503 0.0594685 4.48716787 0.20011856 7.25 1.75 C9.3300894 5.45798546 9.53791334 9.15236986 8.6875 13.3125 C6.76542461 15.77253235 5.72593243 16.29968919 2.6875 17.3125 C0.35450175 17.35204234 -1.97958189 17.35651732 -4.3125 17.3125 C-4.50636492 14.66698944 -4.69288267 12.02132217 -4.875 9.375 C-4.93107422 8.62025391 -4.98714844 7.86550781 -5.04492188 7.08789062 C-5.17426157 5.16504042 -5.24766912 3.23860452 -5.3125 1.3125 C-3.74308802 -0.25691198 -2.17115006 0.0675153 0 0 Z M-0.3125 4.3125 C-0.3125 7.2825 -0.3125 10.2525 -0.3125 13.3125 C1.3375 12.9825 2.9875 12.6525 4.6875 12.3125 C5.45706136 9.96716049 5.45706136 9.96716049 5.6875 7.3125 C4.54103452 5.41588257 4.54103452 5.41588257 2.6875 4.3125 C1.6975 4.3125 0.7075 4.3125 -0.3125 4.3125 Z " fill="#E2F6A9" transform="translate(509.3125,237.6875)"/>
<path d="M0 0 C0 1.65 0 3.3 0 5 C-2.64 5 -5.28 5 -8 5 C-8 5.99 -8 6.98 -8 8 C-6.35 7.67 -4.7 7.34 -3 7 C-2.67 8.65 -2.34 10.3 -2 12 C-3.98 12 -5.96 12 -8 12 C-8 14.31 -8 16.62 -8 19 C-9.875 19.625 -9.875 19.625 -12 20 C-14 18 -14 18 -14.1953125 14.0859375 C-14.18200376 12.51550649 -14.15813602 10.94513779 -14.125 9.375 C-14.11597656 8.57320312 -14.10695313 7.77140625 -14.09765625 6.9453125 C-14.07406223 4.96341477 -14.03819065 2.98167019 -14 1 C-12.04175306 0.83232136 -10.08339945 0.66588795 -8.125 0.5 C-6.48917969 0.36078125 -6.48917969 0.36078125 -4.8203125 0.21875 C-3.21670436 0.09437042 -1.60842449 0 0 0 Z " fill="#E1F6A6" transform="translate(364,235)"/>
<path d="M0 0 C1.78722977 -0.01925285 1.78722977 -0.01925285 3.61056519 -0.03889465 C5.55734665 -0.04997505 5.55734665 -0.04997505 7.54345703 -0.0612793 C8.20074924 -0.06535482 8.85804146 -0.06943035 9.53525162 -0.07362938 C13.0140578 -0.09450523 16.49282436 -0.10880038 19.97167969 -0.11816406 C23.56893257 -0.12923285 27.16556756 -0.16363251 30.76260185 -0.20333576 C33.52496507 -0.22945612 36.28718006 -0.23785172 39.04965591 -0.24144554 C41.0212203 -0.2486975 42.99268358 -0.27515669 44.96408081 -0.30183411 C46.76076706 -0.29744576 46.76076706 -0.29744576 48.59375 -0.29296875 C50.17807327 -0.30176811 50.17807327 -0.30176811 51.79440308 -0.31074524 C54.42626953 0.17700195 54.42626953 0.17700195 56.27908325 2.03450012 C57.64892467 4.59283594 57.66472052 6.31559013 57.42626953 9.17700195 C56.76626953 9.17700195 56.10626953 9.17700195 55.42626953 9.17700195 C54.93126953 5.71200195 54.93126953 5.71200195 54.42626953 2.17700195 C34.62626953 2.17700195 14.82626953 2.17700195 -5.57373047 2.17700195 C-4.58373047 4.15700195 -3.59373047 6.13700195 -2.57373047 8.17700195 C-2.88623047 10.55200195 -2.88623047 10.55200195 -3.57373047 12.17700195 C-6.26692572 8.36164202 -6.99780146 5.8417828 -6.57373047 1.17700195 C-4.82366776 -0.57306076 -2.37879256 0.02220443 0 0 Z " fill="#E8FAC3" transform="translate(244.57373046875,108.822998046875)"/>
<path d="M0 0 C1.32 0 2.64 0 4 0 C4.33 0.99 4.66 1.98 5 3 C5.66 2.01 6.32 1.02 7 0 C9.625 -0.1875 9.625 -0.1875 12 0 C11.690625 0.7425 11.38125 1.485 11.0625 2.25 C10.711875 3.1575 10.36125 4.065 10 5 C9.731875 5.66 9.46375 6.32 9.1875 7 C8.90939697 9.96643236 10.42974906 11.55040853 12 14 C12 14.99 12 15.98 12 17 C9.625 16.75 9.625 16.75 7 16 C5.6875 13.9375 5.6875 13.9375 5 12 C4.67 13.65 4.34 15.3 4 17 C2.35 16.67 0.7 16.34 -1 16 C-1.02685095 13.52076199 -1.04676547 11.0418116 -1.0625 8.5625 C-1.07506836 7.50192383 -1.07506836 7.50192383 -1.08789062 6.41992188 C-1.09653588 4.61306441 -1.05220011 2.80612397 -1 1 C-0.67 0.67 -0.34 0.34 0 0 Z " fill="#E6F5AE" transform="translate(586,238)"/>
<path d="M0 0 C3 0.625 3 0.625 5.3125 2.8125 C8 7.29166667 8 7.29166667 8 10.625 C6.16921243 14.43303814 5.01758846 16.21363445 1.0625 17.8125 C-2 17.625 -2 17.625 -4.875 15.625 C-7.52126764 11.88909274 -7.72186694 10.11661649 -7 5.625 C-5.01750223 2.04125403 -4.04050984 0.84177288 0 0 Z M-2 4.625 C-3.41577477 5.80924326 -3.41577477 5.80924326 -3.0625 9.1875 C-3.041875 10.321875 -3.02125 11.45625 -3 12.625 C-1.34385343 13.00718767 0.32457024 13.33895102 2 13.625 C3.41577477 12.44075674 3.41577477 12.44075674 3.0625 9.0625 C3.041875 7.928125 3.02125 6.79375 3 5.625 C1.34385343 5.24281233 -0.32457024 4.91104898 -2 4.625 Z " fill="#DFF2A6" transform="translate(301,237.375)"/>
<path d="M0 0 C1.65 0.33 3.3 0.66 5 1 C6.65 5.95 8.3 10.9 10 16 C8.35 16.33 6.7 16.66 5 17 C5 15.68 5 14.36 5 13 C2.56282742 13.27034634 2.56282742 13.27034634 0 14 C-0.99 15.485 -0.99 15.485 -2 17 C-2.99 16.67 -3.98 16.34 -5 16 C-4.54762239 14.08191891 -4.08785537 12.16557967 -3.625 10.25 C-3.24214844 8.64898437 -3.24214844 8.64898437 -2.8515625 7.015625 C-2.12466459 4.44147278 -1.2973776 2.32399814 0 0 Z " fill="#DFF5A2" transform="translate(394,238)"/>
<path d="M0 0 C0.33 1.65 0.66 3.3 1 5 C-0.32 5 -1.64 5 -3 5 C-3 4.34 -3 3.68 -3 3 C-3.99 3.33 -4.98 3.66 -6 4 C-6 6.31 -6 8.62 -6 11 C-5.01 11.33 -4.02 11.66 -3 12 C-3 11.34 -3 10.68 -3 10 C-1.68 10 -0.36 10 1 10 C1.33 10.99 1.66 11.98 2 13 C-0.91056403 15.14012061 -2.46198354 16.01076033 -6.125 15.9375 C-9 15 -9 15 -10.9375 13.5 C-12.60029392 9.58754371 -12.10964108 6.04827677 -11 2 C-7.8947002 -2.06077666 -4.64020286 -0.98158137 0 0 Z " fill="#E6F5B2" transform="translate(432,239)"/>
<path d="M0 0 C3.39914975 1.13304992 4.05254451 2.12518475 6 5 C6.66 3.68 7.32 2.36 8 1 C9.65 1 11.3 1 13 1 C11.19354839 6.67741935 11.19354839 6.67741935 9.875 8.875 C8.50532095 12.20136342 8.94133319 15.42132456 9 19 C8 20 8 20 5.4375 20.0625 C4.633125 20.041875 3.82875 20.02125 3 20 C2.97421875 19.27554688 2.9484375 18.55109375 2.921875 17.8046875 C2.55545069 11.55881857 1.89342005 7.89817361 -2 3 C-2 2.34 -2 1.68 -2 1 C-1.34 0.67 -0.68 0.34 0 0 Z " fill="#E9F8B8" transform="translate(280,235)"/>
<path d="M0 0 C9.9 0 19.8 0 30 0 C30 0.33 30 0.66 30 1 C20.43 1.33 10.86 1.66 1 2 C1.44561284 6.76514936 1.44561284 6.76514936 3.53923035 8.42799377 C5.77947394 10.83883033 5.37413423 12.91911724 5.37231445 16.15209961 C5.37854324 17.42029037 5.38477203 18.68848114 5.39118958 19.99510193 C5.38250055 21.38085319 5.37318246 22.76660062 5.36328125 24.15234375 C5.36276253 25.57336934 5.36328069 26.99439565 5.36479187 28.41542053 C5.36470216 31.39383659 5.35427651 34.37198191 5.33618164 37.3503418 C5.31351495 41.16475022 5.31294669 44.97876236 5.31969929 48.79321957 C5.32304423 51.72806813 5.31639898 54.66282668 5.30657005 57.59765816 C5.30272526 59.00384614 5.30156685 60.41004415 5.3031559 61.8162365 C5.30352755 63.78368251 5.2894089 65.7511151 5.2746582 67.71850586 C5.27005081 68.83752792 5.26544342 69.95654999 5.26069641 71.10948181 C5.00557498 73.93818643 4.4672647 75.60031571 3 78 C2.34 77.67 1.68 77.34 1 77 C1.48601181 76.18767914 1.48601181 76.18767914 1.98184204 75.35894775 C3.21430397 72.50348385 3.26718751 70.36464147 3.29052734 67.25683594 C3.30328705 66.10173523 3.31604675 64.94663452 3.32919312 63.75653076 C3.33141876 62.51171936 3.33364441 61.26690796 3.3359375 59.984375 C3.3425943 58.69944153 3.3492511 57.41450806 3.35610962 56.09063721 C3.36807398 53.37044925 3.37179154 50.65038818 3.37060547 47.93017578 C3.3704028 44.46235636 3.39765332 40.99536126 3.43214989 37.52773666 C3.45988808 34.20077203 3.4585716 30.87395356 3.4609375 27.546875 C3.47530853 26.31016052 3.48967957 25.07344604 3.50448608 23.79925537 C3.47208515 17.65050225 3.31116268 13.02172042 -0.23886108 7.85968018 C-1 6 -1 6 0 0 Z " fill="#DBF3A1" transform="translate(617,109)"/>
<path d="M0 0 C0.33 0 0.66 0 1 0 C1.01401855 1.32390747 1.01401855 1.32390747 1.02832031 2.67456055 C1.07246114 5.96456672 1.13412676 9.25329074 1.20751953 12.54272461 C1.23566014 13.96350192 1.25690908 15.38443378 1.27099609 16.80541992 C1.29252394 18.85415359 1.33921514 20.901043 1.390625 22.94921875 C1.41157227 24.17987061 1.43251953 25.41052246 1.45410156 26.6784668 C2.09015599 30.54855649 3.42652093 32.11857517 6 35 C6.4375 37.6875 6.4375 37.6875 6 40 C2.49870264 42.33419824 1.04538161 42.25710827 -3.09375 42.265625 C-4.28871094 42.26820313 -5.48367188 42.27078125 -6.71484375 42.2734375 C-7.96394531 42.26570313 -9.21304687 42.25796875 -10.5 42.25 C-12.37365234 42.26160156 -12.37365234 42.26160156 -14.28515625 42.2734375 C-16.07759766 42.26957031 -16.07759766 42.26957031 -17.90625 42.265625 C-19.55077148 42.26224121 -19.55077148 42.26224121 -21.22851562 42.25878906 C-24 42 -24 42 -27 40 C-26.505 37.03 -26.505 37.03 -26 34 C-25.34 34 -24.68 34 -24 34 C-23.67 35.65 -23.34 37.3 -23 39 C-9.635 39.495 -9.635 39.495 4 40 C3.44788071 36.11428887 3.44788071 36.11428887 1.45581055 34.71948242 C-0.85970515 31.98458773 -0.36780074 28.90200696 -0.29296875 25.48828125 C-0.28872391 24.76005661 -0.28447906 24.03183197 -0.28010559 23.28153992 C-0.26332733 20.95814873 -0.22567855 18.6356285 -0.1875 16.3125 C-0.17245197 14.73634066 -0.15876377 13.16016771 -0.14648438 11.58398438 C-0.11342685 7.72232123 -0.06165194 3.86130822 0 0 Z " fill="#EFF9D9" transform="translate(430,154)"/>
<path d="M0 0 C0.66 0.99 1.32 1.98 2 3 C1.01 3.99 0.02 4.98 -1 6 C-2.65 5.01 -4.3 4.02 -6 3 C-7.01540112 7.10223585 -7.01540112 7.10223585 -6 11 C-5.401875 10.835 -4.80375 10.67 -4.1875 10.5 C-2 10 -2 10 1 10 C1.33 11.32 1.66 12.64 2 14 C-0.79953012 15.90368048 -2.15773599 15.99184124 -5.625 15.8125 C-9 15 -9 15 -11 12 C-11.67898233 7.71293714 -11.67757662 4.13832872 -9.4375 0.375 C-5.93733207 -1.5994537 -3.79763087 -1.05489746 0 0 Z " fill="#E4F3BA" transform="translate(582,239)"/>
<path d="M0 0 C1.65 0 3.3 0 5 0 C5.36504603 1.58086048 5.71660506 3.16483907 6.0625 4.75 C6.25972656 5.63171875 6.45695312 6.5134375 6.66015625 7.421875 C6.99825872 9.98679028 6.81158635 11.57091639 6 14 C3.03 13.505 3.03 13.505 0 13 C-0.33 14.32 -0.66 15.64 -1 17 C-2.32 16.67 -3.64 16.34 -5 16 C-3.41078475 10.63904723 -1.81027062 5.29156027 0 0 Z " fill="#E5F5B2" transform="translate(448,238)"/>
<path d="M0 0 C0.6819191 -0.00095673 1.3638382 -0.00191345 2.06642151 -0.00289917 C3.51148572 -0.00358089 4.95655297 -0.00172719 6.40161133 0.00244141 C8.61611818 0.00778166 10.83042144 0.00250045 13.04492188 -0.00390625 C14.44661503 -0.00324531 15.84830806 -0.00196381 17.25 0 C18.53189209 0.00112793 19.81378418 0.00225586 21.13452148 0.00341797 C24.19140625 0.1328125 24.19140625 0.1328125 26.19140625 1.1328125 C26.50390625 3.3203125 26.50390625 3.3203125 26.19140625 6.1328125 C23.69140625 8.9453125 23.69140625 8.9453125 21.19140625 11.1328125 C21.52140625 8.1628125 21.85140625 5.1928125 22.19140625 2.1328125 C12.62140625 2.1328125 3.05140625 2.1328125 -6.80859375 2.1328125 C-6.47859375 4.4428125 -6.14859375 6.7528125 -5.80859375 9.1328125 C-7.37109375 7.9453125 -7.37109375 7.9453125 -8.80859375 6.1328125 C-8.17606043 -0.50878731 -6.24126427 0.00549649 0 0 Z " fill="#E9F9C1" transform="translate(559.80859375,108.8671875)"/>
<path d="M0 0 C0.625 1.875 0.625 1.875 1 4 C0.34 4.66 -0.32 5.32 -1 6 C-1 7.32 -1 8.64 -1 10 C8.57 10 18.14 10 28 10 C27.67 9.01 27.34 8.02 27 7 C26.34 6.67 25.68 6.34 25 6 C24.67 6.66 24.34 7.32 24 8 C24 5.69 24 3.38 24 1 C28.92307692 5.18461538 28.92307692 5.18461538 29.3125 9.3125 C29.209375 10.199375 29.10625 11.08625 29 12 C23.70089841 13.7663672 18.04595761 13.22710647 12.5 13.25 C10.62634766 13.2809375 10.62634766 13.2809375 8.71484375 13.3125 C6.92240234 13.32023438 6.92240234 13.32023438 5.09375 13.328125 C3.99740234 13.3374707 2.90105469 13.34681641 1.77148438 13.35644531 C-1 13 -1 13 -2.88867188 11.62792969 C-4 10 -4 10 -3.875 7.625 C-2.92732303 4.78196908 -1.64217787 2.49896633 0 0 Z " fill="#E9F7CA" transform="translate(370,183)"/>
<path d="M0 0 C2.39763185 2.39763185 2.34280586 3.33273498 2.625 6.625 C2.69976562 7.44226563 2.77453125 8.25953125 2.8515625 9.1015625 C2.92503906 10.04128906 2.92503906 10.04128906 3 11 C0.69 11.33 -1.62 11.66 -4 12 C-4 14.64 -4 17.28 -4 20 C-4.99 20 -5.98 20 -7 20 C-6.67 15.38 -6.34 10.76 -6 6 C-11.05830169 6.8383196 -11.05830169 6.8383196 -16 8 C-16.33 6.68 -16.66 5.36 -17 4 C-15.23303157 3.72400493 -13.46103785 3.48003085 -11.6875 3.25 C-10.70136719 3.11078125 -9.71523437 2.9715625 -8.69921875 2.828125 C-6 3 -6 3 -4.14453125 4.984375 C-3.76683594 5.64953125 -3.38914063 6.3146875 -3 7 C-2.34 6.67 -1.68 6.34 -1 6 C-0.34227572 2.97065509 -0.34227572 2.97065509 0 0 Z " fill="#CDE98F" transform="translate(217,147)"/>
<path d="M0 0 C0.66 1.32 1.32 2.64 2 4 C2.5775 3.525625 3.155 3.05125 3.75 2.5625 C7.76714733 -0.22718564 11.43989842 -0.11478371 16.25 -0.0625 C17.86648438 -0.04896484 17.86648438 -0.04896484 19.515625 -0.03515625 C20.33546875 -0.02355469 21.1553125 -0.01195312 22 0 C22 0.33 22 0.66 22 1 C20.46279297 1.12955078 20.46279297 1.12955078 18.89453125 1.26171875 C17.53373419 1.40249086 16.17306292 1.54448269 14.8125 1.6875 C14.13896484 1.74099609 13.46542969 1.79449219 12.77148438 1.84960938 C7.60781924 2.42894741 5.28517878 4.05140648 2 8 C-1.16115776 6.63016497 -1.9927092 6.0109362 -4 3 C-5.5778125 3.7425 -5.5778125 3.7425 -7.1875 4.5 C-10.25452609 5.82779788 -12.62134936 6.30715006 -16 6 C-10.71853531 1.47303026 -7.00791703 -0.32594963 0 0 Z " fill="#E3F7AF" transform="translate(427,136)"/>
<path d="M0 0 C3.96 0 7.92 0 12 0 C12 1.65 12 3.3 12 5 C11.01 5.495 11.01 5.495 10 6 C10.2784375 6.9590625 10.2784375 6.9590625 10.5625 7.9375 C10.706875 8.618125 10.85125 9.29875 11 10 C10 11 10 11 7.4375 11.0625 C6.633125 11.041875 5.82875 11.02125 5 11 C5.66 10.67 6.32 10.34 7 10 C7 9.01 7 8.02 7 7 C6.01 7 5.02 7 4 7 C4.33 5.68 4.66 4.36 5 3 C4.34 2.67 3.68 2.34 3 2 C2.34 5.63 1.68 9.26 1 13 C0.67 13 0.34 13 0 13 C0 8.71 0 4.42 0 0 Z " fill="#F3F9B5" transform="translate(521,238)"/>
<path d="M0 0 C1.48576635 4.01156915 0.80747878 4.48130304 -1 9 C12.365 9.495 12.365 9.495 26 10 C26 8.02 26 6.04 26 4 C26.33 4 26.66 4 27 4 C27 6.31 27 8.62 27 11 C24.30734639 12.3463268 22.19885751 12.12962636 19.1875 12.1328125 C18.02992188 12.13410156 16.87234375 12.13539063 15.6796875 12.13671875 C14.46539062 12.13285156 13.25109375 12.12898437 12 12.125 C10.78570312 12.12886719 9.57140625 12.13273438 8.3203125 12.13671875 C6.58394531 12.13478516 6.58394531 12.13478516 4.8125 12.1328125 C3.21341797 12.13112061 3.21341797 12.13112061 1.58203125 12.12939453 C-1 12 -1 12 -3 11 C-3.32613618 6.32538149 -2.70582788 3.83325617 0 0 Z " fill="#E9F7CB" transform="translate(445,184)"/>
<path d="M0 0 C1.65 0.33 3.3 0.66 5 1 C5 5.95 5 10.9 5 16 C3.68 16.33 2.36 16.66 1 17 C0.34 16.34 -0.32 15.68 -1 15 C-0.98252112 12.40730017 -0.86231408 9.9474846 -0.625 7.375 C-0.56828125 6.66859375 -0.5115625 5.9621875 -0.453125 5.234375 C-0.31159079 3.48878639 -0.15702613 1.74426327 0 0 Z " fill="#EEF7CA" transform="translate(436,238)"/>
<path d="M0 0 C0 0.99 0 1.98 0 3 C-0.61875 3.0825 -1.2375 3.165 -1.875 3.25 C-4.15797477 3.77814248 -4.15797477 3.77814248 -4.91796875 5.8515625 C-6.12594177 8.25006489 -7.37409164 9.42989894 -9.4375 11.125 C-10.03433594 11.62257813 -10.63117187 12.12015625 -11.24609375 12.6328125 C-12.77762306 13.82665495 -14.3842702 14.9228468 -16 16 C-16.33 16.99 -16.66 17.98 -17 19 C-17.66 19.33 -18.32 19.66 -19 20 C-19.7115625 21.2375 -19.7115625 21.2375 -20.4375 22.5 C-22 25 -22 25 -25 26 C-24.34 24.35 -23.68 22.7 -23 21 C-22.34 21 -21.68 21 -21 21 C-20.74863281 20.27167969 -20.49726562 19.54335937 -20.23828125 18.79296875 C-18.90309989 15.78143982 -17.36974993 13.77013902 -15.1875 11.3125 C-14.18783203 10.16201172 -14.18783203 10.16201172 -13.16796875 8.98828125 C-10.86077171 6.87231135 -8.87092775 6.14544656 -6 5 C-5.67 4.01 -5.34 3.02 -5 2 C-2 0 -2 0 0 0 Z " fill="#E6F6BE" transform="translate(64,102)"/>
<path d="M0 0 C2.89932357 2.39509338 3.50168276 4.31245243 4 8 C4.99 7.01 5.98 6.02 7 5 C7.33 5.66 7.66 6.32 8 7 C8.66 7 9.32 7 10 7 C10.33 8.32 10.66 9.64 11 11 C9.68 11.33 8.36 11.66 7 12 C7.27263628 17.88894359 8.26382478 22.26066643 11.2578125 27.37109375 C11.50273438 27.90863281 11.74765625 28.44617188 12 29 C11.67 29.66 11.34 30.32 11 31 C7.45731658 25.32543629 5.30240114 19.60099238 3.25 13.25 C2.93417969 12.30511719 2.61835938 11.36023438 2.29296875 10.38671875 C0 3.40854978 0 3.40854978 0 0 Z " fill="#DBF79F" transform="translate(23,203)"/>
<path d="M0 0 C1 2 1 2 1 5 C14.86 5.495 14.86 5.495 29 6 C29 4.02 29 2.04 29 0 C29.66 0 30.32 0 31 0 C31.6875 2.3125 31.6875 2.3125 32 5 C30.90039062 6.64526367 30.90039062 6.64526367 29 8 C26.22851562 8.37231445 26.22851562 8.37231445 22.90625 8.36328125 C21.71128906 8.36263672 20.51632812 8.36199219 19.28515625 8.36132812 C18.03605469 8.34521484 16.78695312 8.32910156 15.5 8.3125 C14.25089844 8.31572266 13.00179687 8.31894531 11.71484375 8.32226562 C2.40050383 8.26700255 2.40050383 8.26700255 -1 6 C-1.25 3.4375 -1.25 3.4375 -1 1 C-0.67 0.67 -0.34 0.34 0 0 Z " fill="#EAF6CC" transform="translate(617,188)"/>
<path d="M0 0 C1.9375 0.375 1.9375 0.375 4 1 C6.09539838 5.19079676 5.1858582 10.65655148 5.18530273 15.26635742 C5.18748048 17.29432432 5.20561582 19.32173938 5.22460938 21.34960938 C5.22654297 22.63287109 5.22847656 23.91613281 5.23046875 25.23828125 C5.23457764 26.41430908 5.23868652 27.59033691 5.24291992 28.80200195 C4.86141312 33.82447189 3.14720179 37.13752508 0 41 C0.875 36.125 0.875 36.125 2 35 C2.2189531 30.7975724 2.18578949 26.58939221 2.18530273 22.38183594 C2.18747673 20.27257742 2.20559231 18.1638525 2.22460938 16.0546875 C2.22754581 14.70833512 2.22952893 13.36198026 2.23046875 12.015625 C2.23457764 10.79133789 2.23868652 9.56705078 2.24291992 8.30566406 C2.00719909 5.09796545 1.37795835 2.88220964 0 0 Z " fill="#DDF4A4" transform="translate(368,152)"/>
<path d="M0 0 C4.50884026 2.31883213 6.93906776 5.06451569 10 9 C7.69 8.67 5.38 8.34 3 8 C2.67 8.66 2.34 9.32 2 10 C2.66 10.33 3.32 10.66 4 11 C3.67 11.99 3.34 12.98 3 14 C4.32 14.33 5.64 14.66 7 15 C6.67 16.32 6.34 17.64 6 19 C2.33333333 15.33333333 -1.33333333 11.66666667 -5 8 C-3.35 7.67 -1.7 7.34 0 7 C0 6.01 0 5.02 0 4 C0 2.68 0 1.36 0 0 Z " fill="#20250F" transform="translate(172,118)"/>
<path d="M0 0 C0 0.33 0 0.66 0 1 C-0.98919434 1.02505615 -1.97838867 1.0501123 -2.99755859 1.07592773 C-6.66159404 1.16997787 -10.32543885 1.27020429 -13.98925781 1.37231445 C-15.57612657 1.41567241 -17.16304224 1.45734687 -18.75 1.49731445 C-21.02878979 1.55499632 -23.30734322 1.61869638 -25.5859375 1.68359375 C-26.65320572 1.70866249 -26.65320572 1.70866249 -27.74203491 1.73423767 C-31.49660817 1.79721937 -31.49660817 1.79721937 -35 3 C-36.87379605 3.07033769 -38.75001102 3.0843022 -40.625 3.0625 C-41.62789063 3.05347656 -42.63078125 3.04445313 -43.6640625 3.03515625 C-44.43492188 3.02355469 -45.20578125 3.01195313 -46 3 C-46 2.67 -46 2.34 -46 2 C-31.21524949 -1.33401085 -14.98504264 -3.12293326 0 0 Z " fill="#E4F8B5" transform="translate(141,84)"/>
<path d="M0 0 C1.98 0.495 1.98 0.495 4 1 C4 5.95 4 10.9 4 16 C2.68 16.33 1.36 16.66 0 17 C-1.04792525 13.56513389 -1.13372185 10.39281963 -1.125 6.8125 C-1.12757813 5.74644531 -1.13015625 4.68039063 -1.1328125 3.58203125 C-1 1 -1 1 0 0 Z " fill="#E1F4A8" transform="translate(367,238)"/>
<path d="M0 0 C0.99 0.33 1.98 0.66 3 1 C3.33 1.99 3.66 2.98 4 4 C4.66 3.01 5.32 2.02 6 1 C8.625 0.3125 8.625 0.3125 11 0 C11 4 11 4 9.5 5.75 C9.005 6.1625 8.51 6.575 8 7 C8 6.01 8 5.02 8 4 C7.67 4.66 7.34 5.32 7 6 C4.67843403 6.40729228 2.3431213 6.74438677 0 7 C-0.33 10.3 -0.66 13.6 -1 17 C-1.33 17 -1.66 17 -2 17 C-2 11.72 -2 6.44 -2 1 C-1.34 0.67 -0.68 0.34 0 0 Z " fill="#E8F7BA" transform="translate(548,235)"/>
<path d="M0 0 C1.9375 0.8125 1.9375 0.8125 4 2 C5.13917218 5.41751653 5.11338481 8.03487937 5.09765625 11.63671875 C5.09443359 12.93544922 5.09121094 14.23417969 5.08789062 15.57226562 C5.07953531 16.94401108 5.07107037 18.31575587 5.0625 19.6875 C5.05748335 21.07096195 5.05292073 22.45442563 5.04882812 23.83789062 C5.03702529 27.22530395 5.02056019 30.61263033 5 34 C3.68 34.66 2.36 35.32 1 36 C1.16153564 35.47148437 1.32307129 34.94296875 1.48950195 34.3984375 C2.62536438 29.06189398 2.18477241 23.43335558 2.1875 18 C2.19974609 16.71609375 2.21199219 15.4321875 2.22460938 14.109375 C2.22654297 12.87703125 2.22847656 11.6446875 2.23046875 10.375 C2.23457764 9.24835938 2.23868652 8.12171875 2.24291992 6.9609375 C2.00671446 4.08184219 1.49779324 2.43386763 0 0 Z " fill="#E5F9B6" transform="translate(405,152)"/>
<path d="M0 0 C0.66 0 1.32 0 2 0 C2 5.61 2 11.22 2 17 C2.66 17 3.32 17 4 17 C4.33 12.71 4.66 8.42 5 4 C5.33 4.99 5.66 5.98 6 7 C7.65 6.67 9.3 6.34 11 6 C11.33 7.65 11.66 9.3 12 11 C10.02 11 8.04 11 6 11 C6 13.31 6 15.62 6 18 C4.125 18.625 4.125 18.625 2 19 C0 17 0 17 -0.1953125 13.0859375 C-0.18200376 11.51550649 -0.15813602 9.94513779 -0.125 8.375 C-0.11597656 7.57320312 -0.10695313 6.77140625 -0.09765625 5.9453125 C-0.07406223 3.96341477 -0.03819065 1.98167019 0 0 Z " fill="#EAF5BE" transform="translate(350,236)"/>
<path d="M0 0 C2 0.66666667 4 1.33333333 6 2 C6.66 1.67 7.32 1.34 8 1 C8 1.66 8 2.32 8 3 C8.66 3.33 9.32 3.66 10 4 C9.01 4.495 9.01 4.495 8 5 C8.66 6.65 9.32 8.3 10 10 C9.34 10 8.68 10 8 10 C7.67 10.66 7.34 11.32 7 12 C3.45850796 10.13605682 1.25925533 8.89224374 0 5 C-0.125 2.25 -0.125 2.25 0 0 Z " fill="#19180B" transform="translate(59,231)"/>
<path d="M0 0 C2.97 0.495 2.97 0.495 6 1 C5.67 2.98 5.34 4.96 5 7 C6.32 7.33 7.64 7.66 9 8 C9 8.99 9 9.98 9 11 C4.61110675 10.33501617 1.0188515 8.81242323 -3 7 C-3 3.48283697 -2.17554415 2.62878252 0 0 Z " fill="#18170B" transform="translate(83,248)"/>
<path d="M0 0 C3.125 0.4375 3.125 0.4375 5.4375 2.625 C7.10704084 5.40756806 7.95511344 7.20965532 8.125 10.4375 C7.135 11.9225 7.135 11.9225 6.125 13.4375 C5.135 13.1075 4.145 12.7775 3.125 12.4375 C2.795 10.1275 2.465 7.8175 2.125 5.4375 C0.475 5.4375 -1.175 5.4375 -2.875 5.4375 C-2.875 4.7775 -2.875 4.1175 -2.875 3.4375 C-3.535 3.1075 -4.195 2.7775 -4.875 2.4375 C-2.875 0.4375 -2.875 0.4375 0 0 Z " fill="#DFF5A8" transform="translate(300.875,237.5625)"/>
<path d="M0 0 C0.66 0 1.32 0 2 0 C1.67 1.65 1.34 3.3 1 5 C7.93 5 14.86 5 22 5 C22.66 3.68 23.32 2.36 24 1 C24.1875 3.375 24.1875 3.375 24 6 C20.87516757 8.08322162 20.17118109 8.2494731 16.62109375 8.23046875 C15.78255859 8.22853516 14.94402344 8.22660156 14.08007812 8.22460938 C13.20802734 8.21236328 12.33597656 8.20011719 11.4375 8.1875 C10.56158203 8.18685547 9.68566406 8.18621094 8.78320312 8.18554688 C2.28099385 8.14049693 2.28099385 8.14049693 0 7 C0 4.69 0 2.38 0 0 Z " fill="#E7F5C3" transform="translate(528,188)"/>
<path d="M0 0 C3 1 3 1 5 4 C3.85660156 4.06058594 2.71320313 4.12117188 1.53515625 4.18359375 C0.04425695 4.26798428 -1.44662775 4.35263302 -2.9375 4.4375 C-4.06961914 4.49647461 -4.06961914 4.49647461 -5.22460938 4.55664062 C-8.91944187 4.44038024 -8.91944187 4.44038024 -12 6 C-12.15825258 7.99782126 -12.25119171 10.00088834 -12.31640625 12.00390625 C-12.35830078 13.21884766 -12.40019531 14.43378906 -12.44335938 15.68554688 C-12.48267578 16.96494141 -12.52199219 18.24433594 -12.5625 19.5625 C-12.60568359 20.84576172 -12.64886719 22.12902344 -12.69335938 23.45117188 C-12.799848 26.63399853 -12.90185962 29.81690674 -13 33 C-13.33 33 -13.66 33 -14 33 C-14.02473868 29.06731133 -14.04287835 25.13465287 -14.05493164 21.2019043 C-14.06242729 19.20685232 -14.07513345 17.21182214 -14.08789062 15.21679688 C-14.09111328 13.96318359 -14.09433594 12.70957031 -14.09765625 11.41796875 C-14.10289307 10.26063232 -14.10812988 9.1032959 -14.11352539 7.91088867 C-14 5 -14 5 -13 2 C-12.14535156 1.93941406 -11.29070312 1.87882812 -10.41015625 1.81640625 C-8.75306641 1.69072266 -8.75306641 1.69072266 -7.0625 1.5625 C-5.96035156 1.48128906 -4.85820312 1.40007812 -3.72265625 1.31640625 C-1.08890097 1.29581916 -1.08890097 1.29581916 0 0 Z " fill="#ECFABB" transform="translate(279,116)"/>
<path d="M0 0 C1.32 0 2.64 0 4 0 C4 5.28 4 10.56 4 16 C3.01 16.33 2.02 16.66 1 17 C0.34 16.67 -0.32 16.34 -1 16 C-1.02685095 13.52076199 -1.04676547 11.0418116 -1.0625 8.5625 C-1.07506836 7.50192383 -1.07506836 7.50192383 -1.08789062 6.41992188 C-1.09653588 4.61306441 -1.05220011 2.80612397 -1 1 C-0.67 0.67 -0.34 0.34 0 0 Z " fill="#E9F7C3" transform="translate(497,238)"/>
<path d="M0 0 C1.32 0 2.64 0 4 0 C4 5.28 4 10.56 4 16 C2.68 16.33 1.36 16.66 0 17 C0 11.39 0 5.78 0 0 Z " fill="#E3F2B4" transform="translate(563,238)"/>
<path d="M0 0 C2.76771273 0.04472067 4.14021868 0.22754137 6.6875 1.4375 C8.1875 3.25 8.1875 3.25 8.4375 5.9375 C8.355 6.700625 8.2725 7.46375 8.1875 8.25 C7.1975 8.745 7.1975 8.745 6.1875 9.25 C6.1875 7.27 6.1875 5.29 6.1875 3.25 C5.5275 3.25 4.8675 3.25 4.1875 3.25 C3.8575 4.57 3.5275 5.89 3.1875 7.25 C3.1875 6.59 3.1875 5.93 3.1875 5.25 C1.5375 5.25 -0.1125 5.25 -1.8125 5.25 C-1.8125 4.26 -1.8125 3.27 -1.8125 2.25 C-2.4725 2.25 -3.1325 2.25 -3.8125 2.25 C-3.8125 6.54 -3.8125 10.83 -3.8125 15.25 C-4.1425 15.25 -4.4725 15.25 -4.8125 15.25 C-4.83935412 12.93756208 -4.85882841 10.6250373 -4.875 8.3125 C-4.88660156 7.02472656 -4.89820313 5.73695313 -4.91015625 4.41015625 C-4.76855698 -0.17199621 -4.71237115 0.30900794 0 0 Z " fill="#EDF7C4" transform="translate(331.8125,237.75)"/>
<path d="M0 0 C9.9 0 19.8 0 30 0 C30 0.33 30 0.66 30 1 C20.43 1.33 10.86 1.66 1 2 C1.33 3.65 1.66 5.3 2 7 C2.66 7.33 3.32 7.66 4 8 C4 9.98 4 11.96 4 14 C0.36336058 10.12873869 -0.69999975 7.3000045 -1 2 C-0.67 1.34 -0.34 0.68 0 0 Z " fill="#EAFBC8" transform="translate(617,109)"/>
<path d="M0 0 C0.66 0 1.32 0 2 0 C1.24871445 4.13207053 0.16839757 7.9106085 -1 12 C5.6 12 12.2 12 19 12 C18.67 13.32 18.34 14.64 18 16 C17.443125 15.855625 16.88625 15.71125 16.3125 15.5625 C11.76882086 14.45728075 7.35377928 13.79644456 2.6875 13.4375 C1.61886719 13.35371094 0.55023437 13.26992187 -0.55078125 13.18359375 C-1.35902344 13.12300781 -2.16726563 13.06242188 -3 13 C-2.45144652 8.428721 -1.58255197 4.32564205 0 0 Z " fill="#DFF6AA" transform="translate(555,153)"/>
<path d="M0 0 C1.23556641 0.01740234 1.23556641 0.01740234 2.49609375 0.03515625 C3.32238281 0.04417969 4.14867187 0.05320313 5 0.0625 C5.63808594 0.07410156 6.27617188 0.08570313 6.93359375 0.09765625 C6.93359375 1.41765625 6.93359375 2.73765625 6.93359375 4.09765625 C5.28359375 4.09765625 3.63359375 4.09765625 1.93359375 4.09765625 C1.93359375 7.06765625 1.93359375 10.03765625 1.93359375 13.09765625 C1.60359375 13.09765625 1.27359375 13.09765625 0.93359375 13.09765625 C0.60359375 10.45765625 0.27359375 7.81765625 -0.06640625 5.09765625 C-0.06640625 9.05765625 -0.06640625 13.01765625 -0.06640625 17.09765625 C-0.72640625 17.09765625 -1.38640625 17.09765625 -2.06640625 17.09765625 C-2.26027117 14.45214569 -2.44678892 11.80647842 -2.62890625 9.16015625 C-2.68498047 8.40541016 -2.74105469 7.65066406 -2.79882812 6.87304688 C-2.92816782 4.95019667 -3.00157537 3.02376077 -3.06640625 1.09765625 C-2.06640625 0.09765625 -2.06640625 0.09765625 0 0 Z " fill="#E8F5B6" transform="translate(507.06640625,237.90234375)"/>
<path d="M0 0 C1.32 0 2.64 0 4 0 C4 5.28 4 10.56 4 16 C3.01 16.33 2.02 16.66 1 17 C-2.24732932 15.37633534 -2.70155136 12.24612161 -4 9 C-3.01 9.33 -2.02 9.66 -1 10 C-0.67 11.65 -0.34 13.3 0 15 C0.66 15 1.32 15 2 15 C1.88490339 13.58249437 1.75746342 12.16598831 1.625 10.75 C1.52058594 9.56664062 1.52058594 9.56664062 1.4140625 8.359375 C1.1104336 5.95629275 1.1104336 5.95629275 -0.1015625 3.828125 C-0.39804687 3.22484375 -0.69453125 2.6215625 -1 2 C-0.67 1.34 -0.34 0.68 0 0 Z " fill="#E8F7B7" transform="translate(414,238)"/>
<path d="M0 0 C3.4375 0.875 3.4375 0.875 5.4375 3.875 C4.4475 4.865 3.4575 5.855 2.4375 6.875 C0.7875 5.885 -0.8625 4.895 -2.5625 3.875 C-3.2225 5.195 -3.8825 6.515 -4.5625 7.875 C-4.8925 7.215 -5.2225 6.555 -5.5625 5.875 C-6.2225 6.535 -6.8825 7.195 -7.5625 7.875 C-7.21030657 5.26876858 -6.79776531 3.26710885 -5.4375 1 C-3.5625 -0.125 -3.5625 -0.125 0 0 Z " fill="#E8F6BB" transform="translate(578.5625,238.125)"/>
<path d="M0 0 C0.33 0.66 0.66 1.32 1 2 C0.7525 2.70125 0.505 3.4025 0.25 4.125 C-0.09950443 8.14430092 1.67521408 10.04025788 3.96875 13.23046875 C4.3090625 13.81441406 4.649375 14.39835938 5 15 C4.67 15.66 4.34 16.32 4 17 C1.6875 16.9375 1.6875 16.9375 -1 16 C-2.8125 12.4375 -2.8125 12.4375 -4 9 C-3.34 8.67 -2.68 8.34 -2 8 C-1.62599214 5.67284 -1.29235267 3.33882138 -1 1 C-0.67 0.67 -0.34 0.34 0 0 Z " fill="#E2F3AE" transform="translate(556,238)"/>
<path d="M0 0 C0.33 0.33 0.66 0.66 1 1 C0.76311337 8.10659898 0.76311337 8.10659898 -2.5625 12 C-3.366875 12.66 -4.17125 13.32 -5 14 C-5.33 13.34 -5.66 12.68 -6 12 C-5.34 12 -4.68 12 -4 12 C-3.01 9.03 -2.02 6.06 -1 3 C-4.24983135 4.08784968 -4.24983135 4.08784968 -7 6 C-8.99958364 6.04080783 -11.00045254 6.04254356 -13 6 C-12.401875 5.566875 -11.80375 5.13375 -11.1875 4.6875 C-9.00360631 3.13536864 -9.00360631 3.13536864 -7.625 1.3125 C-5.16140613 -0.67732582 -3.05527935 -0.26567647 0 0 Z " fill="#E7F8BB" transform="translate(362,174)"/>
<path d="M0 0 C-1.1858237 3.37503669 -2.27573689 5.64722731 -5 8 C-4.34 8 -3.68 8 -3 8 C-3.33 9.32 -3.66 10.64 -4 12 C-6.72957339 9.64264116 -7.88893396 7.41866474 -9 4 C-9 3.01 -9 2.02 -9 1 C-2.25 -1.125 -2.25 -1.125 0 0 Z " fill="#C2DD8A" transform="translate(64,208)"/>
<path d="M0 0 C2.5625 0.25 2.5625 0.25 5 1 C6.30475618 3.60951236 6.11301572 5.52701285 6.09765625 8.4453125 C6.09443359 9.52167969 6.09121094 10.59804687 6.08789062 11.70703125 C6.07951172 12.83496094 6.07113281 13.96289062 6.0625 15.125 C6.05798828 16.26066406 6.05347656 17.39632812 6.04882812 18.56640625 C6.03701615 21.37765638 6.02054507 24.1888023 6 27 C5.67 27 5.34 27 5 27 C5 19.41 5 11.82 5 4 C3.35 4 1.7 4 0 4 C-0.99 5.485 -0.99 5.485 -2 7 C-2.66 7 -3.32 7 -4 7 C-2.92598892 4.08482708 -2.22189824 2.22189824 0 0 Z " fill="#E5FABF" transform="translate(287,140)"/>
<path d="M0 0 C0.66 0 1.32 0 2 0 C2.28875 0.78375 2.5775 1.5675 2.875 2.375 C3.84912254 5.09671632 3.84912254 5.09671632 6 7 C5.67 7.66 5.34 8.32 5 9 C4.34 9 3.68 9 3 9 C3.33 10.65 3.66 12.3 4 14 C2.68 14.33 1.36 14.66 0 15 C-1.47193312 12.05613377 -0.84936173 9.62609964 -0.5625 6.375 C-0.46066406 5.18648437 -0.35882813 3.99796875 -0.25390625 2.7734375 C-0.17011719 1.85820312 -0.08632813 0.94296875 0 0 Z " fill="#DEF1A2" transform="translate(328,240)"/>
<path d="M0 0 C6.78082192 3.16438356 6.78082192 3.16438356 9 6 C9 6.66 9 7.32 9 8 C-1.23 8 -11.46 8 -22 8 C-22 7.67 -22 7.34 -22 7 C-13.09 6.67 -4.18 6.34 5 6 C4.67 5.01 4.34 4.02 4 3 C1.98491642 2.26676204 1.98491642 2.26676204 0 2 C0 1.34 0 0.68 0 0 Z " fill="#BDD489" transform="translate(120,161)"/>
<path d="M0 0 C0.99 0 1.98 0 3 0 C5.02350324 3.03525486 5.32124018 4.19426202 5.625 7.6875 C5.69976562 8.49574219 5.77453125 9.30398437 5.8515625 10.13671875 C5.92503906 11.05904297 5.92503906 11.05904297 6 12 C4.02 11.34 2.04 10.68 0 10 C0.2784375 9.0409375 0.2784375 9.0409375 0.5625 8.0625 C0.706875 7.381875 0.85125 6.70125 1 6 C0.67 5.67 0.34 5.34 0 5 C-0.04063832 3.33382885 -0.042721 1.66611905 0 0 Z " fill="#DBF395" transform="translate(449,240)"/>
<path d="M0 0 C3.63 0.33 7.26 0.66 11 1 C9.515 2.485 9.515 2.485 8 4 C7.34 4 6.68 4 6 4 C6 4.99 6 5.98 6 7 C8.31 7 10.62 7 13 7 C13 7.33 13 7.66 13 8 C9.92576817 8.35471906 7.05991472 8.52666346 4 8 C0 3.51219512 0 3.51219512 0 0 Z " fill="#CAE88E" transform="translate(135,161)"/>
<path d="M0 0 C3.36016893 1.12005631 4.69064913 2.37211797 7 5 C7 5.66 7 6.32 7 7 C6.01 7.33 5.02 7.66 4 8 C4 11.3 4 14.6 4 18 C3.67 18 3.34 18 3 18 C2.96132813 17.12988281 2.96132813 17.12988281 2.921875 16.2421875 C2.51016897 10.5718727 1.41321793 7.51425597 -2 3 C-2 2.34 -2 1.68 -2 1 C-1.34 0.67 -0.68 0.34 0 0 Z " fill="#E9F7BC" transform="translate(280,235)"/>
<path d="M0 0 C0 0.66 0 1.32 0 2 C-2.47346304 4.47346304 -3.70761168 4.98313144 -7.25 5.1875 C-8.61125 5.0946875 -8.61125 5.0946875 -10 5 C-10.226875 5.61875 -10.45375 6.2375 -10.6875 6.875 C-12.40962687 9.66320542 -13.87800152 10.16239065 -17 11 C-17.99 10.67 -18.98 10.34 -20 10 C-4.84931507 0 -4.84931507 0 0 0 Z " fill="#DFF6AC" transform="translate(84,91)"/>
<path d="M0 0 C2.475 0.495 2.475 0.495 5 1 C4.67 4.3 4.34 7.6 4 11 C3.01 11.33 2.02 11.66 1 12 C0.67 8.04 0.34 4.08 0 0 Z " fill="#E3F7AD" transform="translate(383,238)"/>
<path d="M0 0 C0.99 0.33 1.98 0.66 3 1 C2.34 2.32 1.68 3.64 1 5 C1.99 5 2.98 5 4 5 C4 5.99 4 6.98 4 8 C1.5 10.1875 1.5 10.1875 -1 12 C-2.87643761 10.12356239 -2.17984987 7.50194299 -2.23046875 5.0078125 C-2 3 -2 3 0 0 Z " fill="#DBF798" transform="translate(524,240)"/>
<path d="M0 0 C0.44472656 0.94552734 0.44472656 0.94552734 0.8984375 1.91015625 C1.87370497 4.05900177 1.87370497 4.05900177 3.625 5.4375 C5 7 5 7 5.25 9.625 C5 12 5 12 4 13 C2.00041636 13.04080783 -0.00045254 13.04254356 -2 13 C-1.01 12.67 -0.02 12.34 1 12 C0.67 11.34 0.34 10.68 0 10 C-0.06996014 8.29297265 -0.08440154 6.58331997 -0.0625 4.875 C-0.05347656 3.96492187 -0.04445313 3.05484375 -0.03515625 2.1171875 C-0.02355469 1.41851562 -0.01195312 0.71984375 0 0 Z " fill="#DFF7A4" transform="translate(546,181)"/>
<path d="M0 0 C1.32 0.33 2.64 0.66 4 1 C4 3.97 4 6.94 4 10 C2.68 10.33 1.36 10.66 0 11 C0 7.37 0 3.74 0 0 Z " fill="#DDF5A6" transform="translate(320,240)"/>
<path d="M0 0 C1.65 0 3.3 0 5 0 C4.67 3.96 4.34 7.92 4 12 C2.68 11.67 1.36 11.34 0 11 C0 7.37 0 3.74 0 0 Z " fill="#DBF49A" transform="translate(283,242)"/>
<path d="M0 0 C0.33 0 0.66 0 1 0 C1.02886984 3.97915159 1.04675406 7.95827653 1.0625 11.9375 C1.07087891 13.07380859 1.07925781 14.21011719 1.08789062 15.38085938 C1.09111328 16.46044922 1.09433594 17.54003906 1.09765625 18.65234375 C1.10289307 19.65257568 1.10812988 20.65280762 1.11352539 21.68334961 C1 24 1 24 0 25 C-2.375 25.375 -2.375 25.375 -5 25 C-6.8125 22.5 -6.8125 22.5 -8 20 C-7.34 20 -6.68 20 -6 20 C-6 20.66 -6 21.32 -6 22 C-4.02 22.33 -2.04 22.66 0 23 C0 15.41 0 7.82 0 0 Z " fill="#DFF3A9" transform="translate(291,144)"/>
<path d="M0 0 C2 1 2 1 3 3 C2.67 3.66 2.34 4.32 2 5 C0.906875 5.309375 -0.18625 5.61875 -1.3125 5.9375 C-4.65842692 6.90158064 -6.43673118 7.74432344 -9 10 C-9.66 9.34 -10.32 8.68 -11 8 C-9.72992786 7.0406581 -8.45891081 6.08256706 -7.1875 5.125 C-6.47980469 4.59132813 -5.77210937 4.05765625 -5.04296875 3.5078125 C-3.39543703 2.29185219 -1.70375789 1.13583859 0 0 Z " fill="#C7E386" transform="translate(87,121)"/>
<path d="M0 0 C0.66 0.99 1.32 1.98 2 3 C1.1875 5.375 1.1875 5.375 0 8 C-0.36871088 9.65919896 -0.71281674 11.3247643 -1 13 C-1.66 13 -2.32 13 -3 13 C-3 13.66 -3 14.32 -3 15 C-3.99 15.33 -4.98 15.66 -6 16 C-4.43551329 10.3856009 -2.83604813 5.13189662 0 0 Z " fill="#C1DA88" transform="translate(58,151)"/>
<path d="M0 0 C1.98 0.99 3.96 1.98 6 3 C4.35 4.65 2.7 6.3 1 8 C0.34 7.34 -0.32 6.68 -1 6 C-0.625 2.875 -0.625 2.875 0 0 Z M-6 7 C-3.03 7.495 -3.03 7.495 0 8 C0.33 9.32 0.66 10.64 1 12 C-1.88437779 10.70700306 -3.87219421 9.34058637 -6 7 Z " fill="#242813" transform="translate(80,244)"/>
<path d="M0 0 C0.99 0 1.98 0 3 0 C3.33 1.32 3.66 2.64 4 4 C4.66 4 5.32 4 6 4 C5.67 5.65 5.34 7.3 5 9 C4.01 8.67 3.02 8.34 2 8 C1.67 8.66 1.34 9.32 1 10 C0 9 0 9 -0.09765625 6.93359375 C-0.08605469 6.10988281 -0.07445312 5.28617188 -0.0625 4.4375 C-0.05347656 3.61121094 -0.04445313 2.78492188 -0.03515625 1.93359375 C-0.02355469 1.29550781 -0.01195312 0.65742188 0 0 Z " fill="#DBF69D" transform="translate(587,239)"/>
<path d="M0 0 C0.99 0.33 1.98 0.66 3 1 C3.33 4.96 3.66 8.92 4 13 C2.68 13 1.36 13 0 13 C0 8.71 0 4.42 0 0 Z " fill="#DEF4A0" transform="translate(460,240)"/>
<path d="M0 0 C1.32 0.66 2.64 1.32 4 2 C1.50935112 2.68707555 -0.37886292 3 -3 3 C-2.01 2.01 -1.02 1.02 0 0 Z M-3 4 C-1 7.75 -1 7.75 -1 10 C-0.34 10 0.32 10 1 10 C0.67 10.66 0.34 11.32 0 12 C-2.64 10.35 -5.28 8.7 -8 7 C-5 5 -5 5 -3 4 Z " fill="#242B10" transform="translate(166,114)"/>
<path d="M0 0 C2.6245228 0.99550865 3.95028727 1.93963454 5.75 4.125 C7.48573839 8.11719829 7.41450775 10.64766863 7 15 C5.4765625 17.24609375 5.4765625 17.24609375 4 19 C4.03480469 17.77023438 4.03480469 17.77023438 4.0703125 16.515625 C4.08835937 15.43796875 4.10640625 14.3603125 4.125 13.25 C4.14820313 12.18265625 4.17140625 11.1153125 4.1953125 10.015625 C4.00322356 7.04977172 3.63578192 5.44795336 2 3 C1.34 2.67 0.68 2.34 0 2 C0 1.34 0 0.68 0 0 Z " fill="#E8F9BC" transform="translate(390,108)"/>
<path d="M0 0 C1.52519276 0.08937803 3.04681929 0.24537146 4.5625 0.4375 C5.80193359 0.59025391 5.80193359 0.59025391 7.06640625 0.74609375 C7.70449219 0.82988281 8.34257813 0.91367188 9 1 C9 1.99 9 2.98 9 4 C6.36 4.33 3.72 4.66 1 5 C0.34 3.68 -0.32 2.36 -1 1 C-0.67 0.67 -0.34 0.34 0 0 Z " fill="#E8F4C2" transform="translate(535,244)"/>
<path d="M0 0 C1.55913346 3.11826692 0.66585225 5.67073874 0 9 C-2 10 -2 10 -4.375 10.4375 C-6.9016082 10.97891604 -8.7302165 11.80715633 -11 13 C-10.62488281 12.56429687 -10.24976563 12.12859375 -9.86328125 11.6796875 C-6.54140223 7.81392401 -3.25357073 3.92342352 0 0 Z " fill="#283012" transform="translate(181,229)"/>
<path d="M0 0 C-0.33 0.99 -0.66 1.98 -1 3 C-1.99 3.33 -2.98 3.66 -4 4 C-5.22520264 7.00847418 -5.22520264 7.00847418 -6 10 C-6.99 9.67 -7.98 9.34 -9 9 C-9.3125 6.6875 -9.3125 6.6875 -9 4 C-6.625 2.25 -6.625 2.25 -4 1 C-2 0 -2 0 0 0 Z " fill="#E4F7B3" transform="translate(411,142)"/>
<path d="M0 0 C2.97 0 5.94 0 9 0 C9 0.66 9 1.32 9 2 C6 3 6 3 3 2 C2.34 5.63 1.68 9.26 1 13 C0.67 13 0.34 13 0 13 C0 8.71 0 4.42 0 0 Z " fill="#F1FBC6" transform="translate(521,238)"/>
<path d="M0 0 C0.66 0.33 1.32 0.66 2 1 C1.67 1.86625 1.34 2.7325 1 3.625 C-0.00318931 7.01076391 -0.31143203 9.49638964 0 13 C0.99 14.485 0.99 14.485 2 16 C0.68 15.67 -0.64 15.34 -2 15 C-3.3364048 9.65438081 -2.57341421 6.15730212 -1 1 C-0.67 0.67 -0.34 0.34 0 0 Z " fill="#C1D889" transform="translate(45,151)"/>
<path d="M0 0 C0.33 0 0.66 0 1 0 C1 4.62 1 9.24 1 14 C-0.32 14.33 -1.64 14.66 -3 15 C-4.04005702 11.61981469 -4.08004482 8.5219721 -4 5 C-1.8480563 8.22791555 -1.79913557 9.28400809 -2 13 C-1.34 13 -0.68 13 0 13 C0 8.71 0 4.42 0 0 Z " fill="#F4F9DF" transform="translate(370,240)"/>
<path d="M0 0 C1.65 0 3.3 0 5 0 C3.7508258 3.45925163 2.32472205 6.14693203 0 9 C0 7.68 0 6.36 0 5 C-0.99 5.33 -1.98 5.66 -3 6 C-2 4 -1 2 0 0 Z " fill="#ECF8C4" transform="translate(593,238)"/>
<path d="M0 0 C0.66 0.33 1.32 0.66 2 1 C0.66667905 4.99996286 -1.4957827 5.83782337 -5 8 C-5.99 7.34 -6.98 6.68 -8 6 C-8 5.34 -8 4.68 -8 4 C-6.71349294 3.30289269 -5.42059335 2.61757124 -4.125 1.9375 C-3.40570313 1.55464844 -2.68640625 1.17179688 -1.9453125 0.77734375 C-1.30335937 0.52082031 -0.66140625 0.26429688 0 0 Z " fill="#C8E589" transform="translate(129,194)"/>
<path d="M0 0 C0 0.99 0 1.98 0 3 C-0.61875 3.0825 -1.2375 3.165 -1.875 3.25 C-4.15723303 3.78648121 -4.15723303 3.78648121 -5 5.875 C-5.33 6.57625 -5.66 7.2775 -6 8 C-8.125 9.75 -8.125 9.75 -10 11 C-9.34 9.02 -8.68 7.04 -8 5 C-7.34 5 -6.68 5 -6 5 C-5.67 4.01 -5.34 3.02 -5 2 C-2 0 -2 0 0 0 Z " fill="#DEF6A7" transform="translate(64,102)"/>
<path d="M0 0 C6.38564257 0.81867212 12.61920635 2.41280424 18 6 C11.18012971 5.56699236 6.08356979 4.09212176 0 1 C0 0.67 0 0.34 0 0 Z " fill="#E4F8B7" transform="translate(82,277)"/>
<path d="M0 0 C0.33 0 0.66 0 1 0 C1.06058594 0.67546875 1.12117188 1.3509375 1.18359375 2.046875 C1.26738281 2.93890625 1.35117187 3.8309375 1.4375 4.75 C1.55931641 6.07257813 1.55931641 6.07257813 1.68359375 7.421875 C1.96238465 9.69350452 2.38790577 11.79851823 3 14 C1.68 13.67 0.36 13.34 -1 13 C-1.02696365 11.20841511 -1.04637917 9.41671527 -1.0625 7.625 C-1.07410156 6.62726563 -1.08570313 5.62953125 -1.09765625 4.6015625 C-1 2 -1 2 0 0 Z " fill="#DCF492" transform="translate(507,241)"/>
<path d="M0 0 C2.75167577 3.2858246 4.21933799 6.63627487 5.75 10.625 C6.19859375 11.77226562 6.6471875 12.91953125 7.109375 14.1015625 C8 17 8 17 7 19 C4.61982776 16.12118833 3.38152035 13.6516852 2.375 10.0625 C2.01535156 8.81146484 2.01535156 8.81146484 1.6484375 7.53515625 C1.00909874 5.0355728 0.48059759 2.53447218 0 0 Z " fill="#E5F7BA" transform="translate(589,142)"/>
<path d="M0 0 C0.33 0.66 0.66 1.32 1 2 C-2.3 2 -5.6 2 -9 2 C-8.67 2.99 -8.34 3.98 -8 5 C-8.9375 8.1875 -8.9375 8.1875 -10 11 C-10.33 11 -10.66 11 -11 11 C-11.35820896 3.71641791 -11.35820896 3.71641791 -10 1 C-6.72032242 -0.63983879 -3.62861311 -0.17845638 0 0 Z " fill="#E6F6BE" transform="translate(489,148)"/>
<path d="M0 0 C0.66 0.33 1.32 0.66 2 1 C0.40551709 4.3661306 -0.50953514 5.7704207 -3.9375 7.375 C-6.9448146 7.98873767 -8.16317264 7.84553386 -11 7 C-10.37351563 6.66226562 -9.74703125 6.32453125 -9.1015625 5.9765625 C-8.28429687 5.53054688 -7.46703125 5.08453125 -6.625 4.625 C-5.40683594 3.96371094 -5.40683594 3.96371094 -4.1640625 3.2890625 C-1.89185698 2.0556107 -1.89185698 2.0556107 0 0 Z " fill="#BBD383" transform="translate(171,252)"/>
<path d="M0 0 C0.99 0 1.98 0 3 0 C2.67 1.32 2.34 2.64 2 4 C2.66 4.33 3.32 4.66 4 5 C4.33 4.01 4.66 3.02 5 2 C5.66 3.32 6.32 4.64 7 6 C4.69 6 2.38 6 0 6 C0 6.66 0 7.32 0 8 C-0.66 8 -1.32 8 -2 8 C-1.125 1.125 -1.125 1.125 0 0 Z " fill="#D7F48F" transform="translate(394,244)"/>
<path d="M0 0 C3.14300157 2.57154674 3.86239825 5.16059409 5 9 C5.53688024 10.62658765 6.0787408 12.25153806 6.625 13.875 C7.3125 15.9375 7.3125 15.9375 8 18 C4.70293916 15.07004888 3.17634277 12.59766641 1.75 8.4375 C1.41484375 7.48746094 1.0796875 6.53742188 0.734375 5.55859375 C0 3 0 3 0 0 Z " fill="#E3F7B2" transform="translate(27,216)"/>
<path d="M0 0 C3.71599191 -0.20086443 4.77208445 -0.1519437 8 2 C9.92744369 2.3626117 9.92744369 2.3626117 12.01171875 2.4140625 C13.14770508 2.47207031 13.14770508 2.47207031 14.30664062 2.53125 C15.09232422 2.5621875 15.87800781 2.593125 16.6875 2.625 C17.48478516 2.66367188 18.28207031 2.70234375 19.10351562 2.7421875 C21.06863475 2.83632494 23.0342854 2.91924632 25 3 C25 3.33 25 3.66 25 4 C22.14524694 4.08156437 19.29286435 4.14076372 16.4375 4.1875 C15.23770508 4.22520508 15.23770508 4.22520508 14.01367188 4.26367188 C8.55205195 4.33054885 4.87075897 3.4909519 0 1 C0 0.67 0 0.34 0 0 Z " fill="#E9F9BA" transform="translate(321,192)"/>
<path d="M0 0 C0.33 0 0.66 0 1 0 C1 6.27 1 12.54 1 19 C1.66 19 2.32 19 3 19 C3 20.98 3 22.96 3 25 C0.3084483 21.93281075 -0.3672868 20.07834493 -0.29296875 16.015625 C-0.28330078 15.08105469 -0.27363281 14.14648438 -0.26367188 13.18359375 C-0.23853516 12.21550781 -0.21339844 11.24742187 -0.1875 10.25 C-0.17396484 9.26644531 -0.16042969 8.28289062 -0.14648438 7.26953125 C-0.11118726 4.84579585 -0.06188054 2.42317855 0 0 Z " fill="#DEF6A6" transform="translate(308,157)"/>
<path d="M0 0 C0.69287109 0.00451172 1.38574219 0.00902344 2.09960938 0.01367188 C3.79561068 0.02536844 5.49156703 0.04330076 7.1875 0.0625 C7.1875 0.3925 7.1875 0.7225 7.1875 1.0625 C6.27226562 1.11148438 5.35703125 1.16046875 4.4140625 1.2109375 C3.22554688 1.28570312 2.03703125 1.36046875 0.8125 1.4375 C-0.96253906 1.54191406 -0.96253906 1.54191406 -2.7734375 1.6484375 C-5.91812319 1.76467346 -5.91812319 1.76467346 -7.8125 4.0625 C-11.4375 3.6875 -11.4375 3.6875 -14.8125 3.0625 C-10.85169363 -0.89830637 -5.29797047 -0.06590777 0 0 Z " fill="#E4F9AF" transform="translate(337.8125,135.9375)"/>
<path d="M0 0 C1.1577506 3.47325181 1.06866652 6.36067448 1 10 C0.34 10 -0.32 10 -1 10 C-1.28875 9.21625 -1.5775 8.4325 -1.875 7.625 C-2.84912254 4.90328368 -2.84912254 4.90328368 -5 3 C-3 1 -3 1 0 0 Z " fill="#DAF595" transform="translate(415,243)"/>
<path d="M0 0 C-1.75 4.875 -1.75 4.875 -4 6 C-4 5.01 -4 4.02 -4 3 C-4.33 3.66 -4.66 4.32 -5 5 C-7.0625 5.625 -7.0625 5.625 -9 6 C-6 0 -6 0 -4.0625 -0.6875 C-2 -1 -2 -1 0 0 Z " fill="#ECF7C9" transform="translate(560,236)"/>
<path d="M0 0 C0.33 0 0.66 0 1 0 C1.13277344 1.10859375 1.26554687 2.2171875 1.40234375 3.359375 C1.58059757 4.8229327 1.75899028 6.28647349 1.9375 7.75 C2.06801758 8.84441406 2.06801758 8.84441406 2.20117188 9.9609375 C2.62027409 13.37584442 3.117274 16.67603543 4 20 C3.01 19.67 2.02 19.34 1 19 C-0.65497356 15.69005287 -0.10084335 12.00877 -0.0625 8.375 C-0.05798828 7.57320312 -0.05347656 6.77140625 -0.04882812 5.9453125 C-0.03703168 3.96350994 -0.01909605 1.98174567 0 0 Z " fill="#E6F9B9" transform="translate(467,168)"/>
<path d="M0 0 C5.78461538 4.06153846 5.78461538 4.06153846 6.875 8.8125 C6.91625 9.864375 6.9575 10.91625 7 12 C1.33064516 6.62903226 1.33064516 6.62903226 0 3 C0 2.01 0 1.02 0 0 Z " fill="#E3F5B3" transform="translate(458,141)"/>
<path d="M0 0 C3.08917348 0.3432415 4.77105979 0.82193539 7.25 2.75 C9.17806461 5.22894021 9.6567585 6.91082652 10 10 C6.66666667 6.66666667 3.33333333 3.33333333 0 0 Z " fill="#E4F6B8" transform="translate(284,120)"/>
<path d="M0 0 C1.27310312 0.93441535 2.543388 1.87267111 3.8125 2.8125 C4.52019531 3.33457031 5.22789063 3.85664063 5.95703125 4.39453125 C7.78531393 5.83128877 9.39896688 7.31815763 11 9 C8.69 8.67 6.38 8.34 4 8 C4 7.01 4 6.02 4 5 C3.01 4.67 2.02 4.34 1 4 C0.3125 1.9375 0.3125 1.9375 0 0 Z " fill="#C8E18E" transform="translate(67,246)"/>
<path d="M0 0 C0.33 0 0.66 0 1 0 C1.33 2.64 1.66 5.28 2 8 C3.32 8.33 4.64 8.66 6 9 C5.67 9.66 5.34 10.32 5 11 C3.35 11 1.7 11 0 11 C-1.37432457 7.18243176 -0.67975039 3.92744671 0 0 Z " fill="#DCF29F" transform="translate(313,243)"/>
<path d="M0 0 C1.98 1.65 3.96 3.3 6 5 C5.34 5.66 4.68 6.32 4 7 C3.01 7 2.02 7 1 7 C0.67 7.66 0.34 8.32 0 9 C-0.84454356 5.62182575 -1.10844919 3.32534757 0 0 Z " fill="#CCEA8A" transform="translate(117,215)"/>
<path d="M0 0 C1.7882302 2.68234531 2.85190382 4.95514077 4 7.9375 C5.20033981 11.04619256 6.46276424 14.04219369 8 17 C6.140625 16.86328125 6.140625 16.86328125 4 16 C2.734375 13.41796875 2.734375 13.41796875 1.75 10.1875 C1.41484375 9.12917969 1.0796875 8.07085937 0.734375 6.98046875 C0 4 0 4 0 0 Z " fill="#E6F8BE" transform="translate(600,167)"/>
<path d="M0 0 C2.79703683 1.64953454 4.6853471 2.92821356 5.625 6.12890625 C6.19805173 10.47693627 6.25859125 13.13315117 4 17 C3.67 17 3.34 17 3 17 C3.03480469 16.16855469 3.06960938 15.33710938 3.10546875 14.48046875 C3.13253906 13.39378906 3.15960938 12.30710938 3.1875 11.1875 C3.22230469 10.10855469 3.25710938 9.02960938 3.29296875 7.91796875 C2.96489802 4.65038424 2.43664333 4.02733841 0 2 C0 1.34 0 0.68 0 0 Z " fill="#E8F8BD" transform="translate(356,143)"/>
<path d="M0 0 C-0.66 0 -1.32 0 -2 0 C-2 0.66 -2 1.32 -2 2 C-9.92 2.495 -9.92 2.495 -18 3 C-18 2.67 -18 2.34 -18 2 C-15.75256955 1.46818825 -13.50192898 0.94992874 -11.25 0.4375 C-9.99703125 0.14746094 -8.7440625 -0.14257812 -7.453125 -0.44140625 C-4.40526252 -0.93444283 -2.82358172 -1.07666879 0 0 Z " fill="#A4B871" transform="translate(150,265)"/>
<path d="M0 0 C0.33 0 0.66 0 1 0 C1 2.31 1 4.62 1 7 C1.66 7 2.32 7 3 7 C2.67 8.32 2.34 9.64 2 11 C0.68 10.67 -0.64 10.34 -2 10 C-1.34 6.7 -0.68 3.4 0 0 Z " fill="#E0F3A7" transform="translate(498,244)"/>
<path d="M0 0 C1 2 1 2 0.6171875 3.91015625 C0.24980469 4.97556641 0.24980469 4.97556641 -0.125 6.0625 C-0.35445312 6.77535156 -0.58390625 7.48820313 -0.8203125 8.22265625 C-1.20960938 8.80917969 -1.59890625 9.39570313 -2 10 C-3.65 10.33 -5.3 10.66 -7 11 C-4.69 7.37 -2.38 3.74 0 0 Z " fill="#C3DB8A" transform="translate(197,224)"/>
<path d="M0 0 C0.99 0 1.98 0 3 0 C1.53967505 5.31027254 -0.98320986 9.46330032 -4 14 C-4.97918775 10.92443042 -5.1498998 10.31407577 -3.6875 7.25 C-3.130625 6.5075 -2.57375 5.765 -2 5 C-1.34 5 -0.68 5 0 5 C0 3.35 0 1.7 0 0 Z " fill="#2B3310" transform="translate(197,218)"/>
<path d="M0 0 C0 0.33 0 0.66 0 1 C-5.445 2.485 -5.445 2.485 -11 4 C-11.33 2.68 -11.66 1.36 -12 0 C-7.6835078 -0.76173392 -4.25566547 -1.16063604 0 0 Z " fill="#BCD287" transform="translate(212,151)"/>
<path d="M0 0 C0.66 0.99 1.32 1.98 2 3 C1.67 3.99 1.34 4.98 1 6 C0.34 6 -0.32 6 -1 6 C-1.66 8.97 -2.32 11.94 -3 15 C-3.66 15 -4.32 15 -5 15 C-4.54705135 13.24859857 -4.08741252 11.49892656 -3.625 9.75 C-3.36976563 8.77546875 -3.11453125 7.8009375 -2.8515625 6.796875 C-2.10401491 4.34162697 -1.22876183 2.24382595 0 0 Z " fill="#E5F7B8" transform="translate(554,128)"/>
<path d="M0 0 C0.33 0 0.66 0 1 0 C1.33 3.3 1.66 6.6 2 10 C0.68 9.34 -0.64 8.68 -2 8 C-1.125 1.125 -1.125 1.125 0 0 Z " fill="#DFF4A3" transform="translate(573,243)"/>
<path d="M0 0 C2.475 0.99 2.475 0.99 5 2 C5 3.32 5 4.64 5 6 C3.68 6 2.36 6 1 6 C1 5.34 1 4.68 1 4 C0.01 3.67 -0.98 3.34 -2 3 C-1.34 2.01 -0.68 1.02 0 0 Z " fill="#EAF5C1" transform="translate(428,238)"/>
<path d="M0 0 C2 0.3125 2 0.3125 4 1 C4.33 1.66 4.66 2.32 5 3 C4.360625 3.103125 3.72125 3.20625 3.0625 3.3125 C2.381875 3.539375 1.70125 3.76625 1 4 C0.67 4.99 0.34 5.98 0 7 C-0.66 6.67 -1.32 6.34 -2 6 C-1.125 1.125 -1.125 1.125 0 0 Z " fill="#2D3614" transform="translate(43,182)"/>
<path d="M0 0 C0.33 0 0.66 0 1 0 C1.3125 3.3125 1.3125 3.3125 1 7 C-1.94946208 9.7707068 -3.76588326 9.98848606 -7.8125 10.1875 C-9.3903125 10.0946875 -9.3903125 10.0946875 -11 10 C-11 9.67 -11 9.34 -11 9 C-9.3603125 8.62875 -9.3603125 8.62875 -7.6875 8.25 C-3.89469145 6.96430219 -2.86156036 6.41286067 -1 3 C-0.67 2.01 -0.34 1.02 0 0 Z " fill="#E9F9BF" transform="translate(340,155)"/>
<path d="M0 0 C2.64465038 3.1254959 3.84414715 6.08788267 5 10 C2 10 2 10 0.25 8.9375 C-1.70767152 5.90310914 -0.70550248 3.39923923 0 0 Z " fill="#E2F5B4" transform="translate(213,137)"/>
<path d="M0 0 C0.99 0 1.98 0 3 0 C3 3.3 3 6.6 3 10 C2.34 10 1.68 10 1 10 C0.67 6.7 0.34 3.4 0 0 Z " fill="#DEF3A4" transform="translate(437,239)"/>
<path d="M0 0 C1.62490954 -0.02698189 3.24994633 -0.04638757 4.875 -0.0625 C5.77992188 -0.07410156 6.68484375 -0.08570313 7.6171875 -0.09765625 C10 0 10 0 12 1 C11.67 2.32 11.34 3.64 11 5 C9.68 4.67 8.36 4.34 7 4 C7.66 3.67 8.32 3.34 9 3 C9 2.34 9 1.68 9 1 C5.7 1.33 2.4 1.66 -1 2 C-0.67 1.34 -0.34 0.68 0 0 Z " fill="#E8F4B8" transform="translate(481,236)"/>
<path d="M0 0 C0.33 0 0.66 0 1 0 C1 1.98 1 3.96 1 6 C0.34 6 -0.32 6 -1 6 C-1.66 8.97 -2.32 11.94 -3 15 C-3.66 15 -4.32 15 -5 15 C-3.78623966 9.67812773 -2.27376292 4.96093728 0 0 Z " fill="#E6F8B7" transform="translate(548,144)"/>
<path d="M0 0 C1.65 0 3.3 0 5 0 C5.66 1.32 6.32 2.64 7 4 C8.32 4 9.64 4 11 4 C11 4.99 11 5.98 11 7 C6.89188572 5.55007731 3.53144334 3.54592427 0 1 C0 0.67 0 0.34 0 0 Z " fill="#E0F5AF" transform="translate(64,267)"/>
<path d="M0 0 C1.65 0.33 3.3 0.66 5 1 C5.66 2.98 6.32 4.96 7 7 C6.01 7.33 5.02 7.66 4 8 C3.67 6.35 3.34 4.7 3 3 C2.01 3.33 1.02 3.66 0 4 C0 2.68 0 1.36 0 0 Z " fill="#EAF7BA" transform="translate(406,238)"/>
<path d="M0 0 C0.99 0.33 1.98 0.66 3 1 C-3.14285714 6.57142857 -3.14285714 6.57142857 -8 7 C-8 6.34 -8 5.68 -8 5 C-7.01 5 -6.02 5 -5 5 C-5 4.34 -5 3.68 -5 3 C-3.35 2.67 -1.7 2.34 0 2 C0 1.34 0 0.68 0 0 Z " fill="#E3F6B1" transform="translate(354,188)"/>
<path d="M0 0 C0.83438967 2.33629107 1.22334675 3.50176494 0.1875 5.8125 C-0.204375 6.534375 -0.59625 7.25625 -1 8 C-1.69730806 10.3243602 -2.36912152 12.65673706 -3 15 C-3.66 15 -4.32 15 -5 15 C-4.54705135 13.24859857 -4.08741252 11.49892656 -3.625 9.75 C-3.36976563 8.77546875 -3.11453125 7.8009375 -2.8515625 6.796875 C-2.10401491 4.34162697 -1.22876183 2.24382595 0 0 Z " fill="#E3F6B5" transform="translate(540,165)"/>
<path d="M0 0 C1.65 0 3.3 0 5 0 C4.07161713 1.31896465 3.13194268 2.62998689 2.1875 3.9375 C1.40439453 5.03384766 1.40439453 5.03384766 0.60546875 6.15234375 C-1 8 -1 8 -4 9 C-4 8.34 -4 7.68 -4 7 C-3.34 6.360625 -2.68 5.72125 -2 5.0625 C0.34807292 3.11987668 0.34807292 3.11987668 0 0 Z " fill="#E5F8B5" transform="translate(194,252)"/>
<path d="M0 0 C0.33 0 0.66 0 1 0 C1 1.65 1 3.3 1 5 C1.66 5 2.32 5 3 5 C3.33 4.01 3.66 3.02 4 2 C4.99 2.99 5.98 3.98 7 5 C6.01 5 5.02 5 4 5 C4.66 6.32 5.32 7.64 6 9 C1.125 7.125 1.125 7.125 0 6 C-0.04080783 4.00041636 -0.04254356 1.99954746 0 0 Z " fill="#E8F7BA" transform="translate(479,238)"/>
<path d="M0 0 C-2.64 1.98 -5.28 3.96 -8 6 C-8.66 5.67 -9.32 5.34 -10 5 C-5.16129032 -1.29032258 -5.16129032 -1.29032258 0 0 Z " fill="#232B0B" transform="translate(69,127)"/>
<path d="M0 0 C0.94875 0.04125 1.8975 0.0825 2.875 0.125 C3.205 0.785 3.535 1.445 3.875 2.125 C0.41 3.61 0.41 3.61 -3.125 5.125 C-3.125 4.465 -3.125 3.805 -3.125 3.125 C-3.785 2.795 -4.445 2.465 -5.125 2.125 C-3.125 0.125 -3.125 0.125 0 0 Z " fill="#ECF7BD" transform="translate(301.125,237.875)"/>
<path d="M0 0 C0.61875 0.78375 1.2375 1.5675 1.875 2.375 C3.89858661 4.96837647 3.89858661 4.96837647 6 7 C6.125 9.625 6.125 9.625 6 12 C5.67 10.68 5.34 9.36 5 8 C3.68 7.67 2.36 7.34 1 7 C0.67 4.69 0.34 2.38 0 0 Z " fill="#E7F9BC" transform="translate(430,182)"/>
<path d="M0 0 C0.99 0.33 1.98 0.66 3 1 C0.11658466 5.21422242 -2.04303419 6.76075855 -7 8 C-7 7.34 -7 6.68 -7 6 C-5.35 5.67 -3.7 5.34 -2 5 C-2.33 4.01 -2.66 3.02 -3 2 C-2.01 2 -1.02 2 0 2 C0 1.34 0 0.68 0 0 Z " fill="#E8F8B7" transform="translate(356,161)"/>
<path d="M0 0 C0.33 1.98 0.66 3.96 1 6 C0.01 6 -0.98 6 -2 6 C-2 5.01 -2 4.02 -2 3 C-3.32 3.33 -4.64 3.66 -6 4 C-6 3.01 -6 2.02 -6 1 C-3.92446352 0.4465236 -2.15634036 0 0 0 Z " fill="#D9F593" transform="translate(554,241)"/>
<path d="M0 0 C1.32 0.33 2.64 0.66 4 1 C3.67 1.99 3.34 2.98 3 4 C3.66 4 4.32 4 5 4 C4.67 5.32 4.34 6.64 4 8 C1.10067643 5.60490662 0.49831724 3.68754757 0 0 Z " fill="#CBE78B" transform="translate(56,212)"/>
<path d="M0 0 C3.0916909 2.52956528 3.90931332 5.22454612 5 9 C2.09303901 7.93411431 1.15567038 7.29651501 -0.3125 4.5 C-1 2 -1 2 0 0 Z " fill="#2E3614" transform="translate(195,143)"/>
<path d="M0 0 C1.32 0.33 2.64 0.66 4 1 C4 1.66 4 2.32 4 3 C5.32 3.33 6.64 3.66 8 4 C7.67 5.32 7.34 6.64 7 8 C5.83035398 6.8572081 4.66435444 5.71068285 3.5 4.5625 C2.8503125 3.92441406 2.200625 3.28632813 1.53125 2.62890625 C0 1 0 1 0 0 Z " fill="#333C15" transform="translate(171,129)"/>
<path d="M0 0 C5.94 0.99 5.94 0.99 12 2 C11.67 2.66 11.34 3.32 11 4 C7.06225823 4.36630156 5.43460229 4.30233203 2.125 2 C1.42375 1.34 0.7225 0.68 0 0 Z " fill="#BED788" transform="translate(101,265)"/>
<path d="M0 0 C0.33 0 0.66 0 1 0 C1 1.98 1 3.96 1 6 C0.01 6.495 0.01 6.495 -1 7 C-2.32 5.68 -3.64 4.36 -5 3 C-4.01 2.67 -3.02 2.34 -2 2 C-1.34 2.33 -0.68 2.66 0 3 C0 2.01 0 1.02 0 0 Z " fill="#E2F48E" transform="translate(383,242)"/>
<path d="M0 0 C0.66 0.33 1.32 0.66 2 1 C0.35 2.98 -1.3 4.96 -3 7 C-3.66 5.68 -4.32 4.36 -5 3 C-3 1 -3 1 0 0 Z " fill="#22260C" transform="translate(187,235)"/>
<path d="M0 0 C1.2380014 3.57644848 0.74926071 6.33694766 0 10 C-0.66 10 -1.32 10 -2 10 C-2.33 10.99 -2.66 11.98 -3 13 C-2.52060632 8.28596212 -2.03165952 4.33420699 0 0 Z " fill="#485628" transform="translate(36,200)"/>
<path d="M0 0 C2.96052484 3.36423277 3.92289822 6.69159287 5 11 C4.34 11 3.68 11 3 11 C0 4.5 0 4.5 0 0 Z " fill="#E8F8BD" transform="translate(583,128)"/>
<path d="M0 0 C0.99 0.33 1.98 0.66 3 1 C1.54744301 4.82946843 -0.42895561 6.12050295 -4 8 C-4 7.01 -4 6.02 -4 5 C-2.68 4.67 -1.36 4.34 0 4 C0 2.68 0 1.36 0 0 Z " fill="#282E0F" transform="translate(78,123)"/>
<path d="M0 0 C0.33 0.66 0.66 1.32 1 2 C1.99 2.33 2.98 2.66 4 3 C1.69 3.66 -0.62 4.32 -3 5 C-3.33 3.68 -3.66 2.36 -4 1 C-2.68 0.67 -1.36 0.34 0 0 Z " fill="#E6F5B6" transform="translate(513,250)"/>
<path d="M0 0 C1.5 1.3125 1.5 1.3125 3 3 C3 3.99 3 4.98 3 6 C1.35 5.67 -0.3 5.34 -2 5 C-2.33 4.01 -2.66 3.02 -3 2 C-2.34 2 -1.68 2 -1 2 C-0.67 1.34 -0.34 0.68 0 0 Z " fill="#E7F4B7" transform="translate(595,249)"/>
<path d="M0 0 C1.61949011 2.57213134 2.04408751 3.67669159 1.625 6.75 C1.41875 7.4925 1.2125 8.235 1 9 C0.01 8.67 -0.98 8.34 -2 8 C-1.34 5.36 -0.68 2.72 0 0 Z " fill="#E4F3B5" transform="translate(391,246)"/>
<path d="M0 0 C0.99 1.485 0.99 1.485 2 3 C2.99387334 4.33790641 3.9926892 5.67218122 5 7 C4.67 7.66 4.34 8.32 4 9 C2.68 8.67 1.36 8.34 0 8 C0 5.36 0 2.72 0 0 Z " fill="#DDF690" transform="translate(329,240)"/>
<path d="M0 0 C0.99 0 1.98 0 3 0 C1.68775452 3.93673644 0.08089673 6.22719294 -3 9 C-2.67 7.02 -2.34 5.04 -2 3 C-1.34 3 -0.68 3 0 3 C0 2.01 0 1.02 0 0 Z " fill="#E4F7B5" transform="translate(205,240)"/>
<path d="M0 0 C0.99 0 1.98 0 3 0 C3 1.65 3 3.3 3 5 C0.69 4.67 -1.62 4.34 -4 4 C-2.68 3.34 -1.36 2.68 0 2 C0 1.34 0 0.68 0 0 Z " fill="#E5F3AF" transform="translate(530,238)"/>
<path d="M0 0 C3.63 0.33 7.26 0.66 11 1 C6.78370866 3.10814567 4.60209225 3.17700355 0 3 C0 2.01 0 1.02 0 0 Z " fill="#262F0E" transform="translate(34,210)"/>
<path d="M0 0 C1.32 0.33 2.64 0.66 4 1 C3.67 3.31 3.34 5.62 3 8 C2.34 8 1.68 8 1 8 C1.33 6.68 1.66 5.36 2 4 C1.34 4 0.68 4 0 4 C0 2.68 0 1.36 0 0 Z " fill="#CCE991" transform="translate(34,192)"/>
<path d="M0 0 C0.33 0.99 0.66 1.98 1 3 C0.01 3 -0.98 3 -2 3 C-2 3.66 -2 4.32 -2 5 C-3.98 5.33 -5.96 5.66 -8 6 C-8.33 5.34 -8.66 4.68 -9 4 C-6.03 3.34 -3.06 2.68 0 2 C0 1.34 0 0.68 0 0 Z " fill="#2F3916" transform="translate(191,156)"/>
<path d="M0 0 C0.66 0.33 1.32 0.66 2 1 C0.824375 1.86625 0.824375 1.86625 -0.375 2.75 C-2.80047244 4.82897637 -3.85694417 6.09040333 -5 9 C-5.33 7.35 -5.66 5.7 -6 4 C-4.02 2.68 -2.04 1.36 0 0 Z " fill="#E9F8C0" transform="translate(372,143)"/>
<path d="M0 0 C0.33 0.66 0.66 1.32 1 2 C0.01 2.495 0.01 2.495 -1 3 C-1.474375 3.825 -1.94875 4.65 -2.4375 5.5 C-4 8 -4 8 -7 9 C-6.34 7.35 -5.68 5.7 -5 4 C-4.34 4 -3.68 4 -3 4 C-2.67 3.01 -2.34 2.02 -2 1 C-1.34 0.67 -0.68 0.34 0 0 Z " fill="#E2F5B0" transform="translate(46,119)"/>
<path d="M0 0 C3.93673644 1.31224548 6.22719294 2.91910327 9 6 C3.50847458 5.38983051 3.50847458 5.38983051 1.125 3.5625 C0 2 0 2 0 0 Z " fill="#E4F6B5" transform="translate(179,100)"/>
<path d="M0 0 C1.65 0.33 3.3 0.66 5 1 C4.67 1.99 4.34 2.98 4 4 C4 3.34 4 2.68 4 2 C3.01 2.33 2.02 2.66 1 3 C0.67 3.99 0.34 4.98 0 6 C-0.66 6 -1.32 6 -2 6 C-1.34 4.02 -0.68 2.04 0 0 Z " fill="#EDF6C2" transform="translate(394,238)"/>
<path d="M0 0 C2.31 0.33 4.62 0.66 7 1 C7 1.33 7 1.66 7 2 C6.071875 2.268125 5.14375 2.53625 4.1875 2.8125 C1.23759634 3.91148371 -0.05615186 4.62418561 -2 7 C-2 5.68 -2 4.36 -2 3 C-1.34 3 -0.68 3 0 3 C0 2.01 0 1.02 0 0 Z " fill="#E1F7AF" transform="translate(433,143)"/>
<path d="M0 0 C1.9375 0.3125 1.9375 0.3125 4 1 C4.33 1.99 4.66 2.98 5 4 C3.35 4.33 1.7 4.66 0 5 C0 3.35 0 1.7 0 0 Z " fill="#E7F49F" transform="translate(556,250)"/>
<path d="M0 0 C0 1.98 0 3.96 0 6 C-2.475 5.01 -2.475 5.01 -5 4 C-1.125 0 -1.125 0 0 0 Z " fill="#C6E184" transform="translate(178,248)"/>
<path d="M0 0 C0.66 0.33 1.32 0.66 2 1 C2 2.65 2 4.3 2 6 C1.34 6 0.68 6 0 6 C-0.33 6.66 -0.66 7.32 -1 8 C-1.04241723 5.66705225 -1.04092937 3.33297433 -1 1 C-0.67 0.67 -0.34 0.34 0 0 Z " fill="#D8F793" transform="translate(408,240)"/>
<path d="M0 0 C1.65 0 3.3 0 5 0 C5 2 5 4 5 6 C4.01 5.67 3.02 5.34 2 5 C2 4.01 2 3.02 2 2 C1.34 1.34 0.68 0.68 0 0 Z " fill="#2D3117" transform="translate(197,200)"/>
<path d="M0 0 C4.875 4.75 4.875 4.75 6 7 C4.35 7.33 2.7 7.66 1 8 C0.67 5.36 0.34 2.72 0 0 Z " fill="#283013" transform="translate(56,194)"/>
<path d="M0 0 C5.66153846 2.46153846 5.66153846 2.46153846 7.375 5.1875 C7.58125 5.785625 7.7875 6.38375 8 7 C6.68 6.34 5.36 5.68 4 5 C4 4.34 4 3.68 4 3 C2.68 2.67 1.36 2.34 0 2 C0 1.34 0 0.68 0 0 Z " fill="#C6DE8E" transform="translate(120,161)"/>
<path d="M0 0 C-2.66666667 1.33333333 -5.33333333 2.66666667 -8 4 C-8.99 3.34 -9.98 2.68 -11 2 C-3.57142857 -1.57142857 -3.57142857 -1.57142857 0 0 Z " fill="#475328" transform="translate(101,106)"/>
<path d="M0 0 C1.54571278 2.31856917 2.79618552 4.50638429 4 7 C2.35 7.33 0.7 7.66 -1 8 C-1 7.34 -1 6.68 -1 6 C-0.34 6 0.32 6 1 6 C0.67 4.02 0.34 2.04 0 0 Z " fill="#E9F5B5" transform="translate(337,247)"/>
<path d="M0 0 C1.67542976 0.28604898 3.34385343 0.61781233 5 1 C5 1.66 5 2.32 5 3 C3.68 2.67 2.36 2.34 1 2 C0.67 3.32 0.34 4.64 0 6 C-0.38218767 4.34385343 -0.71395102 2.67542976 -1 1 C-0.67 0.67 -0.34 0.34 0 0 Z " fill="#EFF8C1" transform="translate(375,238)"/>
<path d="M0 0 C3.7952131 1.49097658 5.61042731 3.75700849 8 7 C5.05043472 5.63055898 2.47531189 4.12169591 0 2 C0 1.34 0 0.68 0 0 Z " fill="#222B08" transform="translate(46,185)"/>
<path d="M0 0 C0.66 0 1.32 0 2 0 C1.67 1.98 1.34 3.96 1 6 C-0.32 6 -1.64 6 -3 6 C-3 5.34 -3 4.68 -3 4 C-2.34 4 -1.68 4 -1 4 C-0.67 2.68 -0.34 1.36 0 0 Z " fill="#293511" transform="translate(205,178)"/>
<path d="M0 0 C0.66 0 1.32 0 2 0 C1.34 1.32 0.68 2.64 0 4 C-2.4375 3.625 -2.4375 3.625 -5 3 C-5.33 2.34 -5.66 1.68 -6 1 C-4.7934375 1.0309375 -4.7934375 1.0309375 -3.5625 1.0625 C-1.06645115 1.29633621 -1.06645115 1.29633621 0 0 Z " fill="#28340C" transform="translate(51,163)"/>
<path d="M0 0 C1.32 0.33 2.64 0.66 4 1 C3.6875 2.9375 3.6875 2.9375 3 5 C2.01 5.33 1.02 5.66 0 6 C0 4.02 0 2.04 0 0 Z " fill="#1A1515" transform="translate(68,125)"/>
</svg>
